<?xml version="1.0" encoding="utf-8"?>
<!-- Generator: Adobe Illustrator 19.0.0, SVG Export Plug-In . SVG Version: 6.00 Build 0)  -->
<svg version="1.1" xmlns="http://www.w3.org/2000/svg" xmlns:xlink="http://www.w3.org/1999/xlink" x="0px" y="0px"
	 viewBox="0 0 50 50" style="enable-background:new 0 0 50 50;" xml:space="preserve">
<style type="text/css">
	.st0{display:none;}
	.st1{fill:#00CDFF;}
</style>
<g id="Layer_1" class="st0">
	
		<image style="display:inline;overflow:visible;" width="1003" height="862" xlink:href="../viber_image_2020-12-04_17-56-07.jpg"  transform="matrix(8.523782e-002 0 0 8.523782e-002 -3.25 -19.475)">
	</image>
</g>
<g id="Layer_2">
	<circle class="st1" cx="11.6" cy="1.8" r="0.7"/>
	<circle class="st1" cx="14" cy="2.1" r="0.7"/>
	<circle class="st1" cx="16" cy="2.3" r="0.7"/>
	<circle class="st1" cx="18.2" cy="2.5" r="0.7"/>
	<circle class="st1" cx="10.3" cy="5.1" r="0.7"/>
	<circle class="st1" cx="12.4" cy="5.4" r="0.7"/>
	<circle class="st1" cx="14.6" cy="5.6" r="0.7"/>
	<circle class="st1" cx="16.8" cy="5.8" r="0.7"/>
	<circle class="st1" cx="18.9" cy="5.9" r="0.7"/>
	<circle class="st1" cx="21" cy="6" r="0.7"/>
	<circle class="st1" cx="23.1" cy="6" r="0.7"/>
	<circle class="st1" cx="25.3" cy="6.2" r="0.7"/>
	<circle class="st1" cx="27.5" cy="6.2" r="0.7"/>
	<circle class="st1" cx="29.5" cy="6" r="0.7"/>
	<circle class="st1" cx="30.6" cy="2.6" r="0.7"/>
	<circle class="st1" cx="9.1" cy="18.8" r="0.7"/>
	<circle class="st1" cx="11.3" cy="19.1" r="0.7"/>
	<circle class="st1" cx="13.4" cy="19.3" r="0.7"/>
	<circle class="st1" cx="15.6" cy="19.5" r="0.7"/>
	<circle class="st1" cx="17.7" cy="19.6" r="0.7"/>
	<circle class="st1" cx="19.8" cy="19.6" r="0.7"/>
	<circle class="st1" cx="22" cy="19.7" r="0.7"/>
	<circle class="st1" cx="24.2" cy="19.7" r="0.7"/>
	<circle class="st1" cx="26.3" cy="19.7" r="0.7"/>
	<circle class="st1" cx="28.5" cy="19.7" r="0.7"/>
	<circle class="st1" cx="30.6" cy="19.7" r="0.7"/>
	<circle class="st1" cx="32.7" cy="19.6" r="0.7"/>
	<circle class="st1" cx="34.8" cy="19.6" r="0.7"/>
	<circle class="st1" cx="37" cy="19.4" r="0.7"/>
	<circle class="st1" cx="39.2" cy="19.2" r="0.7"/>
	<circle class="st1" cx="8.9" cy="22.2" r="0.7"/>
	<circle class="st1" cx="11.1" cy="22.6" r="0.7"/>
	<circle class="st1" cx="13.1" cy="22.7" r="0.7"/>
	<circle class="st1" cx="15.4" cy="23" r="0.7"/>
	<circle class="st1" cx="17.5" cy="23.1" r="0.7"/>
	<circle class="st1" cx="19.6" cy="23.1" r="0.7"/>
	<circle class="st1" cx="21.8" cy="23.2" r="0.7"/>
	<circle class="st1" cx="24" cy="23.2" r="0.7"/>
	<circle class="st1" cx="26.1" cy="23.2" r="0.7"/>
	<circle class="st1" cx="28.3" cy="23.2" r="0.7"/>
	<circle class="st1" cx="30.4" cy="23.2" r="0.7"/>
	<circle class="st1" cx="32.5" cy="23.1" r="0.7"/>
	<circle class="st1" cx="34.6" cy="23.1" r="0.7"/>
	<circle class="st1" cx="36.8" cy="22.9" r="0.7"/>
	<circle class="st1" cx="39" cy="22.7" r="0.7"/>
	<circle class="st1" cx="9.2" cy="25.7" r="0.7"/>
	<circle class="st1" cx="11.4" cy="26" r="0.7"/>
	<circle class="st1" cx="13.4" cy="26.2" r="0.7"/>
	<circle class="st1" cx="15.7" cy="26.4" r="0.7"/>
	<circle class="st1" cx="17.8" cy="26.6" r="0.7"/>
	<circle class="st1" cx="19.9" cy="26.6" r="0.7"/>
	<circle class="st1" cx="22.1" cy="26.7" r="0.7"/>
	<circle class="st1" cx="24.3" cy="26.7" r="0.7"/>
	<circle class="st1" cx="26.4" cy="26.7" r="0.7"/>
	<circle class="st1" cx="28.6" cy="26.7" r="0.7"/>
	<circle class="st1" cx="30.6" cy="26.7" r="0.7"/>
	<circle class="st1" cx="32.8" cy="26.6" r="0.7"/>
	<circle class="st1" cx="34.9" cy="26.6" r="0.7"/>
	<circle class="st1" cx="37.1" cy="26.3" r="0.7"/>
	<circle class="st1" cx="39.2" cy="26.1" r="0.7"/>
	<circle class="st1" cx="9.3" cy="29.1" r="0.7"/>
	<circle class="st1" cx="11.5" cy="29.4" r="0.7"/>
	<circle class="st1" cx="13.6" cy="29.6" r="0.7"/>
	<circle class="st1" cx="15.8" cy="29.8" r="0.7"/>
	<circle class="st1" cx="17.9" cy="30" r="0.7"/>
	<circle class="st1" cx="20" cy="30" r="0.7"/>
	<circle class="st1" cx="22.2" cy="30.1" r="0.7"/>
	<circle class="st1" cx="24.4" cy="30.1" r="0.7"/>
	<circle class="st1" cx="26.5" cy="30.1" r="0.7"/>
	<circle class="st1" cx="28.7" cy="30.1" r="0.7"/>
	<circle class="st1" cx="30.8" cy="30.1" r="0.7"/>
	<circle class="st1" cx="32.9" cy="30" r="0.7"/>
	<circle class="st1" cx="35" cy="30" r="0.7"/>
	<circle class="st1" cx="37.2" cy="29.7" r="0.7"/>
	<circle class="st1" cx="39.4" cy="29.5" r="0.7"/>
	<circle class="st1" cx="9.1" cy="32.6" r="0.7"/>
	<circle class="st1" cx="11.3" cy="32.9" r="0.7"/>
	<circle class="st1" cx="13.4" cy="33.1" r="0.7"/>
	<circle class="st1" cx="15.6" cy="33.3" r="0.7"/>
	<circle class="st1" cx="17.7" cy="33.5" r="0.7"/>
	<circle class="st1" cx="19.8" cy="33.5" r="0.7"/>
	<circle class="st1" cx="22" cy="33.6" r="0.7"/>
	<circle class="st1" cx="24.2" cy="33.6" r="0.7"/>
	<circle class="st1" cx="26.3" cy="33.6" r="0.7"/>
	<circle class="st1" cx="28.5" cy="33.6" r="0.7"/>
	<circle class="st1" cx="30.6" cy="33.6" r="0.7"/>
	<circle class="st1" cx="32.7" cy="33.5" r="0.7"/>
	<circle class="st1" cx="34.8" cy="33.5" r="0.7"/>
	<circle class="st1" cx="37" cy="33.2" r="0.7"/>
	<circle class="st1" cx="39.2" cy="33" r="0.7"/>
	<circle class="st1" cx="9.4" cy="36" r="0.7"/>
	<circle class="st1" cx="11.6" cy="36.4" r="0.7"/>
	<circle class="st1" cx="13.6" cy="36.6" r="0.7"/>
	<circle class="st1" cx="15.9" cy="36.8" r="0.7"/>
	<circle class="st1" cx="18" cy="36.9" r="0.7"/>
	<circle class="st1" cx="20.1" cy="36.9" r="0.7"/>
	<circle class="st1" cx="22.3" cy="37" r="0.7"/>
	<circle class="st1" cx="24.5" cy="37" r="0.7"/>
	<circle class="st1" cx="26.6" cy="37" r="0.7"/>
	<circle class="st1" cx="28.8" cy="37" r="0.7"/>
	<circle class="st1" cx="30.8" cy="37" r="0.7"/>
	<circle class="st1" cx="33" cy="36.9" r="0.7"/>
	<circle class="st1" cx="35.1" cy="36.9" r="0.7"/>
	<circle class="st1" cx="37.3" cy="36.7" r="0.7"/>
	<circle class="st1" cx="39.4" cy="36.5" r="0.7"/>
	<circle class="st1" cx="9" cy="39.6" r="0.7"/>
	<circle class="st1" cx="11.3" cy="39.9" r="0.7"/>
	<circle class="st1" cx="13.3" cy="40.1" r="0.7"/>
	<circle class="st1" cx="15.5" cy="40.3" r="0.7"/>
	<circle class="st1" cx="17.7" cy="40.5" r="0.7"/>
	<circle class="st1" cx="19.7" cy="40.5" r="0.7"/>
	<circle class="st1" cx="21.9" cy="40.6" r="0.7"/>
	<circle class="st1" cx="24.1" cy="40.6" r="0.7"/>
	<circle class="st1" cx="26.3" cy="40.6" r="0.7"/>
	<circle class="st1" cx="28.4" cy="40.6" r="0.7"/>
	<circle class="st1" cx="30.5" cy="40.6" r="0.7"/>
	<circle class="st1" cx="32.6" cy="40.5" r="0.7"/>
	<circle class="st1" cx="34.7" cy="40.5" r="0.7"/>
	<circle class="st1" cx="37" cy="40.2" r="0.7"/>
	<circle class="st1" cx="39.1" cy="40" r="0.7"/>
	<circle class="st1" cx="8.8" cy="43.1" r="0.7"/>
	<circle class="st1" cx="11" cy="43.4" r="0.7"/>
	<circle class="st1" cx="13.1" cy="43.6" r="0.7"/>
	<circle class="st1" cx="15.3" cy="43.8" r="0.7"/>
	<circle class="st1" cx="17.5" cy="44" r="0.7"/>
	<circle class="st1" cx="19.5" cy="44" r="0.7"/>
	<circle class="st1" cx="21.7" cy="44.1" r="0.7"/>
	<circle class="st1" cx="23.9" cy="44.1" r="0.7"/>
	<circle class="st1" cx="26" cy="44.1" r="0.7"/>
	<circle class="st1" cx="28.2" cy="44.1" r="0.7"/>
	<circle class="st1" cx="30.3" cy="44.1" r="0.7"/>
	<circle class="st1" cx="32.4" cy="44" r="0.7"/>
	<circle class="st1" cx="34.5" cy="44" r="0.7"/>
	<circle class="st1" cx="36.7" cy="43.7" r="0.7"/>
	<circle class="st1" cx="38.9" cy="43.5" r="0.7"/>
	<circle class="st1" cx="9.1" cy="46.5" r="0.7"/>
	<circle class="st1" cx="11.3" cy="46.8" r="0.7"/>
	<circle class="st1" cx="13.4" cy="47" r="0.7"/>
	<circle class="st1" cx="15.6" cy="47.3" r="0.7"/>
	<circle class="st1" cx="17.7" cy="47.4" r="0.7"/>
	<circle class="st1" cx="19.8" cy="47.4" r="0.7"/>
	<circle class="st1" cx="22" cy="47.5" r="0.7"/>
	<circle class="st1" cx="24.2" cy="47.5" r="0.7"/>
	<circle class="st1" cx="26.3" cy="47.5" r="0.7"/>
	<circle class="st1" cx="28.5" cy="47.5" r="0.7"/>
	<circle class="st1" cx="30.6" cy="47.5" r="0.7"/>
	<circle class="st1" cx="32.7" cy="47.4" r="0.7"/>
	<circle class="st1" cx="34.8" cy="47.4" r="0.7"/>
	<circle class="st1" cx="37" cy="47.1" r="0.7"/>
	<circle class="st1" cx="39.2" cy="46.9" r="0.7"/>
</g>
</svg>
