<?xml version="1.0" encoding="utf-8"?>
<!-- Generator: Adobe Illustrator 19.0.0, SVG Export Plug-In . SVG Version: 6.00 Build 0)  -->
<svg version="1.1" id="Layer_1" xmlns="http://www.w3.org/2000/svg" xmlns:xlink="http://www.w3.org/1999/xlink" x="0px" y="0px"
	 viewBox="0 0 50 50" style="enable-background:new 0 0 50 50;" xml:space="preserve">
<path id="XMLID_1_" d="M12.6,6.7c-1.4-0.1-2.8,0.5-3.9,1.4s-1.9,2.1-2.6,3.3c-0.7,1.3-1.3,3-0.4,4.1c0.5,0.7,1.4,0.9,2.2,1.1
	c1.7,0.3,3.5-0.1,5.2-0.6c1.5-0.5,3-1.1,4.3-2.1c1.3-1,2.3-2.3,2.6-3.9c0.1-0.5,0.1-1,0-1.5c-0.2-0.8-0.9-1.3-1.6-1.7
	c-1.4-0.9-3-1.3-4.7-1.2"/>
<path id="XMLID_2_" d="M33,24c-5.7,0.1-11.4,3-14.9,7.5c-0.9,1.2-1.7,2.6-2.2,4c-0.6,1.9-0.6,4,0.5,5.6c0.7,1,1.7,1.8,2.8,2.4
	c0.8,0.5,1.6,1,2.5,1.3c1.3,0.4,2.7,0.5,4.1,0.5c7-0.1,13.9-2.9,19-7.7c1-0.9,1.9-1.9,2.4-3.1c1.1-2.7,0-5.8-2.1-7.8s-4.9-3-7.7-3.7
	c-3.3-0.8-6.7-1.2-10-0.3"/>
</svg>
