<?xml version='1.0' encoding='utf-8'?>
<svg xmlns="http://www.w3.org/2000/svg" xmlns:xlink="http://www.w3.org/1999/xlink" baseProfile="tiny" fill-rule="evenodd" height="140mm" preserveAspectRatio="xMidYMid" stroke-linejoin="round" stroke-width="28.222" version="1.2" viewBox="0 0 19000 14000" width="190mm" xml:space="preserve">

<g id="theatre_manager_map" transform="translate(1,1), scale(1)"><g id="theatre_manager_background"><g id="MasterSlide_1_Default" visibility="visible">
  <desc>Master slide
  </desc>
  <path d="M 9500,13999 L 0,13999 0,0 18999,0 18999,13999 9500,13999 Z" fill="rgb(255,255,255)" stroke="none"/>
  <rect fill="none" height="14000" stroke="none" width="19000" x="0" y="0"/>
 </g><g id="Slide_1_PowerPoint_Presentation" visibility="visible">
  <g>
   <path d="M 2531,12793 C 2493,12793 2455,12831 2455,12869 L 2455,13391 C 2455,13429 2493,13468 2531,13468 L 2838,13468 C 2876,13468 2915,13429 2915,13391 L 2915,12869 C 2915,12831 2876,12793 2838,12793 L 2531,12793 Z" fill="rgb(0,102,0)" stroke="none"/>

  </g>
  <g>
   <path d="M 3185,12793 C 3147,12793 3109,12831 3109,12869 L 3109,13391 C 3109,13429 3147,13468 3185,13468 L 3491,13468 C 3529,13468 3568,13429 3568,13391 L 3568,12869 C 3568,12831 3529,12793 3491,12793 L 3185,12793 Z" fill="rgb(0,102,0)" stroke="none"/>
   <rect fill="none" height="676" stroke="none" width="461" x="3109" y="12793"/>
   <rect fill="none" height="675" stroke="none" width="459" x="3109" y="12793"/>
  </g>
  <g>
   <path d="M 3819,12793 C 3781,12793 3744,12830 3744,12868 L 3744,13392 C 3744,13430 3781,13468 3819,13468 L 4123,13468 C 4161,13468 4199,13430 4199,13392 L 4199,12868 C 4199,12830 4161,12793 4123,12793 L 3819,12793 Z" fill="rgb(0,102,0)" stroke="none"/>
   <rect fill="none" height="676" stroke="none" width="456" x="3744" y="12793"/>
   <rect fill="none" height="675" stroke="none" width="455" x="3744" y="12793"/>
  </g>
  <g>
   <path d="M 4471,12793 C 4433,12793 4395,12830 4395,12868 L 4395,13391 C 4395,13429 4433,13467 4471,13467 L 4775,13467 C 4813,13467 4851,13429 4851,13391 L 4851,12868 C 4851,12830 4813,12793 4775,12793 L 4471,12793 Z" fill="rgb(0,102,0)" stroke="none"/>
   <rect fill="none" height="675" stroke="none" width="458" x="4394" y="12793"/>
   <rect fill="none" height="675" stroke="none" width="456" x="4396" y="12793"/>
  </g>
  <g>
   <path d="M 5102,12793 C 5064,12793 5026,12831 5026,12869 L 5026,13391 C 5026,13429 5064,13468 5102,13468 L 5409,13468 C 5447,13468 5486,13429 5486,13391 L 5486,12869 C 5486,12831 5447,12793 5409,12793 L 5102,12793 Z" fill="rgb(0,102,0)" stroke="none"/>
   <rect fill="none" height="676" stroke="none" width="461" x="5026" y="12793"/>
   <rect fill="none" height="675" stroke="none" width="460" x="5027" y="12793"/>
  </g>
  <g>
   <path d="M 5756,12793 C 5718,12793 5680,12831 5680,12869 L 5680,13391 C 5680,13429 5718,13468 5756,13468 L 6062,13468 C 6100,13468 6139,13429 6139,13391 L 6139,12869 C 6139,12831 6100,12793 6062,12793 L 5756,12793 Z" fill="rgb(0,102,0)" stroke="none"/>
   <rect fill="none" height="676" stroke="none" width="461" x="5680" y="12793"/>
   <rect fill="none" height="675" stroke="none" width="459" x="5680" y="12793"/>
  </g>
  <g>
   <path d="M 6391,12793 C 6353,12793 6315,12831 6315,12869 L 6315,13391 C 6315,13429 6353,13468 6391,13468 L 6697,13468 C 6735,13468 6774,13429 6774,13391 L 6774,12869 C 6774,12831 6735,12793 6697,12793 L 6391,12793 Z" fill="rgb(0,102,0)" stroke="none"/>
   <rect fill="none" height="676" stroke="none" width="460" x="6315" y="12793"/>
   <rect fill="none" height="675" stroke="none" width="459" x="6315" y="12793"/>
  </g>
  <g>
   <path d="M 7042,12793 C 7004,12793 6966,12831 6966,12869 L 6966,13391 C 6966,13429 7004,13468 7042,13468 L 7349,13468 C 7387,13468 7426,13429 7426,13391 L 7426,12869 C 7426,12831 7387,12793 7349,12793 L 7042,12793 Z" fill="rgb(0,102,0)" stroke="none"/>
   <rect fill="none" height="676" stroke="none" width="461" x="6966" y="12793"/>
   <rect fill="none" height="675" stroke="none" width="460" x="6967" y="12793"/>
  </g>
  <g>
   <path d="M 7677,12793 C 7639,12793 7601,12831 7601,12869 L 7601,13391 C 7601,13429 7639,13468 7677,13468 L 7984,13468 C 8022,13468 8061,13429 8061,13391 L 8061,12869 C 8061,12831 8022,12793 7984,12793 L 7677,12793 Z" fill="rgb(0,102,0)" stroke="none"/>
   <rect fill="none" height="676" stroke="none" width="461" x="7601" y="12793"/>
   <rect fill="none" height="675" stroke="none" width="460" x="7602" y="12793"/>
  </g>
  <g>
   <path d="M 8330,12793 C 8292,12793 8254,12831 8254,12869 L 8254,13391 C 8254,13429 8292,13468 8330,13468 L 8637,13468 C 8675,13468 8714,13429 8714,13391 L 8714,12869 C 8714,12831 8675,12793 8637,12793 L 8330,12793 Z" fill="rgb(0,102,0)" stroke="none"/>
   <rect fill="none" height="676" stroke="none" width="461" x="8254" y="12793"/>
   <rect fill="none" height="675" stroke="none" width="460" x="8255" y="12793"/>
  </g>
  <g>
   <path d="M 8965,12793 C 8927,12793 8890,12830 8890,12868 L 8890,13392 C 8890,13430 8927,13468 8965,13468 L 9269,13468 C 9307,13468 9345,13430 9345,13392 L 9345,12868 C 9345,12830 9307,12793 9269,12793 L 8965,12793 Z" fill="rgb(0,102,0)" stroke="none"/>
  </g>
  <g>
   <path d="M 9613,12793 C 9575,12793 9537,12831 9537,12869 L 9537,13391 C 9537,13429 9575,13468 9613,13468 L 9920,13468 C 9958,13468 9997,13429 9997,13391 L 9997,12869 C 9997,12831 9958,12793 9920,12793 L 9613,12793 Z" fill="rgb(0,102,0)" stroke="none"/>
   <rect fill="none" height="676" stroke="none" width="461" x="9537" y="12793"/>
   <rect fill="none" height="675" stroke="none" width="460" x="9538" y="12793"/>
  </g>
  <g>
   <path d="M 10248,12793 C 10210,12793 10172,12831 10172,12869 L 10172,13391 C 10172,13429 10210,13468 10248,13468 L 10555,13468 C 10593,13468 10632,13429 10632,13391 L 10632,12869 C 10632,12831 10593,12793 10555,12793 L 10248,12793 Z" fill="rgb(0,102,0)" stroke="none"/>
   <rect fill="none" height="676" stroke="none" width="461" x="10172" y="12793"/>
   <rect fill="none" height="675" stroke="none" width="460" x="10173" y="12793"/>
  </g>
  <g>
   <path d="M 10902,12793 C 10864,12793 10826,12831 10826,12869 L 10826,13391 C 10826,13429 10864,13468 10902,13468 L 11208,13468 C 11246,13468 11285,13429 11285,13391 L 11285,12869 C 11285,12831 11246,12793 11208,12793 L 10902,12793 Z" fill="rgb(0,102,0)" stroke="none"/>
   <rect fill="none" height="676" stroke="none" width="461" x="10826" y="12793"/>
   <rect fill="none" height="675" stroke="none" width="459" x="10826" y="12793"/>
  </g>
  <g>
   <path d="M 11537,12793 C 11499,12793 11461,12831 11461,12869 L 11461,13391 C 11461,13429 11499,13468 11537,13468 L 11843,13468 C 11881,13468 11920,13429 11920,13391 L 11920,12869 C 11920,12831 11881,12793 11843,12793 L 11537,12793 Z" fill="rgb(0,102,0)" stroke="none"/>
   <rect fill="none" height="676" stroke="none" width="461" x="11461" y="12793"/>
   <rect fill="none" height="675" stroke="none" width="459" x="11461" y="12793"/>
  </g>
  <g>
   <path d="M 12190,12793 C 12152,12793 12114,12831 12114,12869 L 12114,13391 C 12114,13429 12152,13468 12190,13468 L 12496,13468 C 12534,13468 12573,13429 12573,13391 L 12573,12869 C 12573,12831 12534,12793 12496,12793 L 12190,12793 Z" fill="rgb(0,102,0)" stroke="none"/>
   <rect fill="none" height="676" stroke="none" width="461" x="12114" y="12793"/>
   <rect fill="none" height="675" stroke="none" width="459" x="12114" y="12793"/>
  </g>
  <g>
   <path d="M 12824,12793 C 12786,12793 12749,12830 12749,12868 L 12749,13392 C 12749,13430 12786,13468 12824,13468 L 13128,13468 C 13166,13468 13204,13430 13204,13392 L 13204,12868 C 13204,12830 13166,12793 13128,12793 L 12824,12793 Z" fill="rgb(0,102,0)" stroke="none"/>
   <rect fill="none" height="676" stroke="none" width="456" x="12749" y="12793"/>
   <rect fill="none" height="675" stroke="none" width="455" x="12749" y="12793"/>
  </g>
  <g>
   <path d="M 13476,12793 C 13438,12793 13401,12830 13401,12868 L 13401,13392 C 13401,13430 13438,13468 13476,13468 L 13780,13468 C 13818,13468 13856,13430 13856,13392 L 13856,12868 C 13856,12830 13818,12793 13780,12793 L 13476,12793 Z" fill="rgb(0,102,0)" stroke="none"/>
   <rect fill="none" height="676" stroke="none" width="456" x="13401" y="12793"/>
   <rect fill="none" height="675" stroke="none" width="455" x="13401" y="12793"/>
  </g>
  <g>
   <path d="M 14108,12793 C 14070,12793 14032,12831 14032,12869 L 14032,13391 C 14032,13429 14070,13468 14108,13468 L 14414,13468 C 14452,13468 14491,13429 14491,13391 L 14491,12869 C 14491,12831 14452,12793 14414,12793 L 14108,12793 Z" fill="rgb(0,102,0)" stroke="none"/>
   <rect fill="none" height="676" stroke="none" width="461" x="14032" y="12793"/>
   <rect fill="none" height="675" stroke="none" width="459" x="14032" y="12793"/>
  </g>
  <g>
   <path d="M 14759,12793 C 14721,12793 14683,12831 14683,12869 L 14683,13391 C 14683,13429 14721,13468 14759,13468 L 15066,13468 C 15104,13468 15143,13429 15143,13391 L 15143,12869 C 15143,12831 15104,12793 15066,12793 L 14759,12793 Z" fill="rgb(0,102,0)" stroke="none"/>
   <rect fill="none" height="676" stroke="none" width="461" x="14683" y="12793"/>
   <rect fill="none" height="675" stroke="none" width="460" x="14684" y="12793"/>
  </g>
  <g>
   <path d="M 15394,12793 C 15356,12793 15318,12831 15318,12869 L 15318,13391 C 15318,13429 15356,13468 15394,13468 L 15701,13468 C 15739,13468 15778,13429 15778,13391 L 15778,12869 C 15778,12831 15739,12793 15701,12793 L 15394,12793 Z" fill="rgb(0,102,0)" stroke="none"/>
   <rect fill="none" height="676" stroke="none" width="461" x="15318" y="12793"/>
   <rect fill="none" height="675" stroke="none" width="460" x="15319" y="12793"/>
  </g>
  <g>
   <path d="M 16047,12793 C 16009,12793 15971,12831 15971,12869 L 15971,13391 C 15971,13429 16009,13468 16047,13468 L 16354,13468 C 16392,13468 16431,13429 16431,13391 L 16431,12869 C 16431,12831 16392,12793 16354,12793 L 16047,12793 Z" fill="rgb(0,102,0)" stroke="none"/>
   <rect fill="none" height="676" stroke="none" width="461" x="15971" y="12793"/>
   <rect fill="none" height="675" stroke="none" width="460" x="15972" y="12793"/>
  </g>
  <g>
   <path d="M 3537,9749 C 3499,9749 3462,9786 3462,9824 L 3462,10349 C 3462,10387 3499,10425 3537,10425 L 3841,10425 C 3879,10425 3917,10387 3917,10349 L 3917,9824 C 3917,9786 3879,9749 3841,9749 L 3537,9749 Z" fill="rgb(0,102,0)" stroke="none"/>
   <rect fill="none" height="677" stroke="none" width="456" x="3462" y="9749"/>
   <rect fill="none" height="676" stroke="none" width="455" x="3462" y="9750"/>
  </g>
  <g>
   <path d="M 4189,9749 C 4151,9749 4114,9786 4114,9824 L 4114,10349 C 4114,10387 4151,10425 4189,10425 L 4493,10425 C 4531,10425 4569,10387 4569,10349 L 4569,9824 C 4569,9786 4531,9749 4493,9749 L 4189,9749 Z" fill="rgb(0,102,0)" stroke="none"/>
   <rect fill="none" height="677" stroke="none" width="456" x="4114" y="9749"/>
   <rect fill="none" height="676" stroke="none" width="455" x="4114" y="9750"/>
  </g>
  <g>
   <path d="M 4821,9749 C 4783,9749 4745,9787 4745,9825 L 4745,10348 C 4745,10386 4783,10424 4821,10424 L 5127,10424 C 5165,10424 5204,10386 5204,10348 L 5204,9825 C 5204,9787 5165,9749 5127,9749 L 4821,9749 Z" fill="rgb(0,102,0)" stroke="none"/>
   <rect fill="none" height="676" stroke="none" width="461" x="4745" y="9749"/>
   <rect fill="none" height="676" stroke="none" width="459" x="4745" y="9750"/>
  </g>
  <g>
   <path d="M 5474,9749 C 5436,9749 5398,9787 5398,9825 L 5398,10348 C 5398,10386 5436,10424 5474,10424 L 5780,10424 C 5818,10424 5857,10386 5857,10348 L 5857,9825 C 5857,9787 5818,9749 5780,9749 L 5474,9749 Z" fill="rgb(0,102,0)" stroke="none"/>
   <rect fill="none" height="676" stroke="none" width="461" x="5398" y="9749"/>
   <rect fill="none" height="676" stroke="none" width="459" x="5398" y="9750"/>
  </g>
  <g>
   <path d="M 6109,9749 C 6071,9749 6033,9787 6033,9825 L 6033,10348 C 6033,10386 6071,10424 6109,10424 L 6415,10424 C 6453,10424 6492,10386 6492,10348 L 6492,9825 C 6492,9787 6453,9749 6415,9749 L 6109,9749 Z" fill="rgb(0,102,0)" stroke="none"/>
   <rect fill="none" height="676" stroke="none" width="461" x="6033" y="9749"/>
   <rect fill="none" height="676" stroke="none" width="459" x="6033" y="9750"/>
  </g>
  <g>
   <path d="M 6760,9749 C 6722,9749 6684,9787 6684,9825 L 6684,10348 C 6684,10386 6722,10425 6760,10425 L 7067,10425 C 7105,10425 7144,10386 7144,10348 L 7144,9825 C 7144,9787 7105,9749 7067,9749 L 6760,9749 Z" fill="rgb(0,102,0)" stroke="none"/>
   <rect fill="none" height="677" stroke="none" width="461" x="6684" y="9749"/>
   <rect fill="none" height="676" stroke="none" width="460" x="6685" y="9750"/>
  </g>
  <g>
   <path d="M 7395,9749 C 7357,9749 7319,9787 7319,9825 L 7319,10348 C 7319,10386 7357,10425 7395,10425 L 7702,10425 C 7740,10425 7779,10386 7779,10348 L 7779,9825 C 7779,9787 7740,9749 7702,9749 L 7395,9749 Z" fill="rgb(0,102,0)" stroke="none"/>
   <rect fill="none" height="677" stroke="none" width="462" x="7319" y="9749"/>
   <rect fill="none" height="676" stroke="none" width="460" x="7320" y="9750"/>
  </g>
  <g>
   <path d="M 8049,9749 C 8011,9749 7973,9787 7973,9825 L 7973,10348 C 7973,10386 8011,10424 8049,10424 L 8355,10424 C 8393,10424 8432,10386 8432,10348 L 8432,9825 C 8432,9787 8393,9749 8355,9749 L 8049,9749 Z" fill="rgb(0,102,0)" stroke="none"/>
   <rect fill="none" height="676" stroke="none" width="461" x="7973" y="9749"/>
   <rect fill="none" height="676" stroke="none" width="459" x="7973" y="9750"/>
  </g>
  <g>
   <path d="M 8683,9749 C 8645,9749 8608,9786 8608,9824 L 8608,10349 C 8608,10387 8645,10425 8683,10425 L 8987,10425 C 9025,10425 9063,10387 9063,10349 L 9063,9824 C 9063,9786 9025,9749 8987,9749 L 8683,9749 Z" fill="rgb(0,102,0)" stroke="none"/>
   <rect fill="none" height="677" stroke="none" width="456" x="8608" y="9749"/>
   <rect fill="none" height="676" stroke="none" width="455" x="8608" y="9750"/>
  </g>
  <g>
   <path d="M 9331,9749 C 9293,9749 9255,9787 9255,9825 L 9255,10348 C 9255,10386 9293,10425 9331,10425 L 9638,10425 C 9676,10425 9715,10386 9715,10348 L 9715,9825 C 9715,9787 9676,9749 9638,9749 L 9331,9749 Z" fill="rgb(0,102,0)" stroke="none"/>
   <rect fill="none" height="677" stroke="none" width="461" x="9255" y="9749"/>
   <rect fill="none" height="676" stroke="none" width="460" x="9256" y="9750"/>
  </g>
  <g>
   <path d="M 9966,9749 C 9928,9749 9890,9787 9890,9825 L 9890,10348 C 9890,10386 9928,10425 9966,10425 L 10273,10425 C 10311,10425 10350,10386 10350,10348 L 10350,9825 C 10350,9787 10311,9749 10273,9749 L 9966,9749 Z" fill="rgb(0,102,0)" stroke="none"/>
   <rect fill="none" height="677" stroke="none" width="461" x="9890" y="9749"/>
   <rect fill="none" height="676" stroke="none" width="460" x="9891" y="9750"/>
  </g>
  <g>
   <path d="M 10620,9749 C 10582,9749 10544,9787 10544,9825 L 10544,10348 C 10544,10386 10582,10424 10620,10424 L 10926,10424 C 10964,10424 11003,10386 11003,10348 L 11003,9825 C 11003,9787 10964,9749 10926,9749 L 10620,9749 Z" fill="rgb(0,102,0)" stroke="none"/>
   <rect fill="none" height="676" stroke="none" width="460" x="10544" y="9749"/>
   <rect fill="none" height="676" stroke="none" width="459" x="10544" y="9750"/>
  </g>
  <g>
   <path d="M 11255,9749 C 11217,9749 11179,9787 11179,9825 L 11179,10348 C 11179,10386 11217,10424 11255,10424 L 11561,10424 C 11599,10424 11638,10386 11638,10348 L 11638,9825 C 11638,9787 11599,9749 11561,9749 L 11255,9749 Z" fill="rgb(0,102,0)" stroke="none"/>
   <rect fill="none" height="676" stroke="none" width="460" x="11179" y="9749"/>
   <rect fill="none" height="676" stroke="none" width="459" x="11179" y="9750"/>
  </g>
  <g>
   <path d="M 11906,9749 C 11868,9749 11830,9787 11830,9825 L 11830,10348 C 11830,10386 11868,10425 11906,10425 L 12213,10425 C 12251,10425 12290,10386 12290,10348 L 12290,9825 C 12290,9787 12251,9749 12213,9749 L 11906,9749 Z" fill="rgb(0,102,0)" stroke="none"/>
   <rect fill="none" height="677" stroke="none" width="462" x="11830" y="9749"/>
   <rect fill="none" height="676" stroke="none" width="460" x="11831" y="9750"/>
  </g>
  <g>
   <path d="M 12541,9749 C 12503,9749 12466,9786 12466,9824 L 12466,10349 C 12466,10387 12503,10425 12541,10425 L 12845,10425 C 12883,10425 12921,10387 12921,10349 L 12921,9824 C 12921,9786 12883,9749 12845,9749 L 12541,9749 Z" fill="rgb(0,102,0)" stroke="none"/>
   <rect fill="none" height="677" stroke="none" width="456" x="12466" y="9749"/>
   <rect fill="none" height="676" stroke="none" width="455" x="12466" y="9750"/>
  </g>
  <g>
   <path d="M 13194,9749 C 13156,9749 13119,9786 13119,9824 L 13119,10349 C 13119,10387 13156,10425 13194,10425 L 13498,10425 C 13536,10425 13574,10387 13574,10349 L 13574,9824 C 13574,9786 13536,9749 13498,9749 L 13194,9749 Z" fill="rgb(0,102,0)" stroke="none"/>
   <rect fill="none" height="677" stroke="none" width="456" x="13119" y="9749"/>
   <rect fill="none" height="676" stroke="none" width="455" x="13119" y="9750"/>
  </g>
  <g>
   <path d="M 13826,9749 C 13788,9749 13750,9787 13750,9825 L 13750,10348 C 13750,10386 13788,10424 13826,10424 L 14132,10424 C 14170,10424 14209,10386 14209,10348 L 14209,9825 C 14209,9787 14170,9749 14132,9749 L 13826,9749 Z" fill="rgb(0,102,0)" stroke="none"/>
   <rect fill="none" height="676" stroke="none" width="461" x="13750" y="9749"/>
   <rect fill="none" height="676" stroke="none" width="459" x="13750" y="9750"/>
  </g>
  <g>
   <path d="M 14477,9749 C 14439,9749 14401,9787 14401,9825 L 14401,10348 C 14401,10386 14439,10425 14477,10425 L 14784,10425 C 14822,10425 14861,10386 14861,10348 L 14861,9825 C 14861,9787 14822,9749 14784,9749 L 14477,9749 Z" fill="rgb(0,102,0)" stroke="none"/>
   <rect fill="none" height="677" stroke="none" width="462" x="14401" y="9749"/>
   <rect fill="none" height="676" stroke="none" width="460" x="14402" y="9750"/>
  </g>
  <g>
   <path d="M 15112,9749 C 15074,9749 15036,9787 15036,9825 L 15036,10348 C 15036,10386 15074,10425 15112,10425 L 15419,10425 C 15457,10425 15496,10386 15496,10348 L 15496,9825 C 15496,9787 15457,9749 15419,9749 L 15112,9749 Z" fill="rgb(0,102,0)" stroke="none"/>
   <rect fill="none" height="677" stroke="none" width="462" x="15036" y="9749"/>
   <rect fill="none" height="676" stroke="none" width="460" x="15037" y="9750"/>
  </g>
  <g>
   <path d="M 3537,10741 C 3499,10741 3462,10778 3462,10816 L 3462,11341 C 3462,11379 3499,11417 3537,11417 L 3841,11417 C 3879,11417 3917,11379 3917,11341 L 3917,10816 C 3917,10778 3879,10741 3841,10741 L 3537,10741 Z" fill="rgb(0,102,0)" stroke="none"/>
   <rect fill="none" height="678" stroke="none" width="456" x="3462" y="10740"/>
   <rect fill="none" height="676" stroke="none" width="455" x="3462" y="10742"/>
  </g>
  <g>
   <path d="M 4189,10741 C 4151,10741 4114,10778 4114,10816 L 4114,11341 C 4114,11379 4151,11417 4189,11417 L 4493,11417 C 4531,11417 4569,11379 4569,11341 L 4569,10816 C 4569,10778 4531,10741 4493,10741 L 4189,10741 Z" fill="rgb(0,102,0)" stroke="none"/>
   <rect fill="none" height="678" stroke="none" width="456" x="4114" y="10740"/>
   <rect fill="none" height="676" stroke="none" width="455" x="4114" y="10742"/>
  </g>
  <g>
   <path d="M 4821,10741 C 4783,10741 4745,10779 4745,10817 L 4745,11340 C 4745,11378 4783,11416 4821,11416 L 5127,11416 C 5165,11416 5204,11378 5204,11340 L 5204,10817 C 5204,10779 5165,10741 5127,10741 L 4821,10741 Z" fill="rgb(0,102,0)" stroke="none"/>
   <rect fill="none" height="676" stroke="none" width="461" x="4745" y="10741"/>
   <rect fill="none" height="676" stroke="none" width="459" x="4745" y="10742"/>
  </g>
  <g>
   <path d="M 5474,10741 C 5436,10741 5398,10779 5398,10817 L 5398,11340 C 5398,11378 5436,11416 5474,11416 L 5780,11416 C 5818,11416 5857,11378 5857,11340 L 5857,10817 C 5857,10779 5818,10741 5780,10741 L 5474,10741 Z" fill="rgb(0,102,0)" stroke="none"/>
   <rect fill="none" height="676" stroke="none" width="461" x="5398" y="10741"/>
   <rect fill="none" height="676" stroke="none" width="459" x="5398" y="10742"/>
  </g>
  <g>
   <path d="M 6109,10741 C 6071,10741 6033,10779 6033,10817 L 6033,11340 C 6033,11378 6071,11416 6109,11416 L 6415,11416 C 6453,11416 6492,11378 6492,11340 L 6492,10817 C 6492,10779 6453,10741 6415,10741 L 6109,10741 Z" fill="rgb(0,102,0)" stroke="none"/>
   <rect fill="none" height="676" stroke="none" width="461" x="6033" y="10741"/>
   <rect fill="none" height="676" stroke="none" width="459" x="6033" y="10742"/>
  </g>
  <g>
   <path d="M 6760,10741 C 6722,10741 6684,10779 6684,10817 L 6684,11340 C 6684,11378 6722,11417 6760,11417 L 7067,11417 C 7105,11417 7144,11378 7144,11340 L 7144,10817 C 7144,10779 7105,10741 7067,10741 L 6760,10741 Z" fill="rgb(0,102,0)" stroke="none"/>
   <rect fill="none" height="678" stroke="none" width="461" x="6684" y="10740"/>
   <rect fill="none" height="676" stroke="none" width="460" x="6685" y="10742"/>
  </g>
  <g>
   <path d="M 7395,10741 C 7357,10741 7319,10779 7319,10817 L 7319,11340 C 7319,11378 7357,11417 7395,11417 L 7702,11417 C 7740,11417 7779,11378 7779,11340 L 7779,10817 C 7779,10779 7740,10741 7702,10741 L 7395,10741 Z" fill="rgb(0,102,0)" stroke="none"/>
   <rect fill="none" height="678" stroke="none" width="462" x="7319" y="10740"/>
   <rect fill="none" height="676" stroke="none" width="460" x="7320" y="10742"/>
  </g>
  <g>
   <path d="M 8049,10741 C 8011,10741 7973,10779 7973,10817 L 7973,11340 C 7973,11378 8011,11416 8049,11416 L 8355,11416 C 8393,11416 8432,11378 8432,11340 L 8432,10817 C 8432,10779 8393,10741 8355,10741 L 8049,10741 Z" fill="rgb(0,102,0)" stroke="none"/>
   <rect fill="none" height="676" stroke="none" width="461" x="7973" y="10741"/>
   <rect fill="none" height="676" stroke="none" width="459" x="7973" y="10742"/>
  </g>
  <g>
   <path d="M 8683,10741 C 8645,10741 8608,10778 8608,10816 L 8608,11341 C 8608,11379 8645,11417 8683,11417 L 8987,11417 C 9025,11417 9063,11379 9063,11341 L 9063,10816 C 9063,10778 9025,10741 8987,10741 L 8683,10741 Z" fill="rgb(0,102,0)" stroke="none"/>
   <rect fill="none" height="678" stroke="none" width="456" x="8608" y="10740"/>
   <rect fill="none" height="676" stroke="none" width="455" x="8608" y="10742"/>
  </g>
  <g>
   <path d="M 9331,10741 C 9293,10741 9255,10779 9255,10817 L 9255,11340 C 9255,11378 9293,11417 9331,11417 L 9638,11417 C 9676,11417 9715,11378 9715,11340 L 9715,10817 C 9715,10779 9676,10741 9638,10741 L 9331,10741 Z" fill="rgb(0,102,0)" stroke="none"/>
   <rect fill="none" height="678" stroke="none" width="461" x="9255" y="10740"/>
   <rect fill="none" height="676" stroke="none" width="460" x="9256" y="10742"/>
  </g>
  <g>
   <path d="M 9966,10741 C 9928,10741 9890,10779 9890,10817 L 9890,11340 C 9890,11378 9928,11417 9966,11417 L 10273,11417 C 10311,11417 10350,11378 10350,11340 L 10350,10817 C 10350,10779 10311,10741 10273,10741 L 9966,10741 Z" fill="rgb(0,102,0)" stroke="none"/>
   <rect fill="none" height="678" stroke="none" width="461" x="9890" y="10740"/>
   <rect fill="none" height="676" stroke="none" width="460" x="9891" y="10742"/>
  </g>
  <g>
   <path d="M 10620,10741 C 10582,10741 10544,10779 10544,10817 L 10544,11340 C 10544,11378 10582,11416 10620,11416 L 10926,11416 C 10964,11416 11003,11378 11003,11340 L 11003,10817 C 11003,10779 10964,10741 10926,10741 L 10620,10741 Z" fill="rgb(0,102,0)" stroke="none"/>
   <rect fill="none" height="676" stroke="none" width="460" x="10544" y="10741"/>
   <rect fill="none" height="676" stroke="none" width="459" x="10544" y="10742"/>
  </g>
  <g>
   <path d="M 11255,10741 C 11217,10741 11179,10779 11179,10817 L 11179,11340 C 11179,11378 11217,11416 11255,11416 L 11561,11416 C 11599,11416 11638,11378 11638,11340 L 11638,10817 C 11638,10779 11599,10741 11561,10741 L 11255,10741 Z" fill="rgb(0,102,0)" stroke="none"/>
   <rect fill="none" height="676" stroke="none" width="460" x="11179" y="10741"/>
   <rect fill="none" height="676" stroke="none" width="459" x="11179" y="10742"/>
  </g>
  <g>
   <path d="M 11906,10741 C 11868,10741 11830,10779 11830,10817 L 11830,11340 C 11830,11378 11868,11417 11906,11417 L 12213,11417 C 12251,11417 12290,11378 12290,11340 L 12290,10817 C 12290,10779 12251,10741 12213,10741 L 11906,10741 Z" fill="rgb(0,102,0)" stroke="none"/>
   <rect fill="none" height="678" stroke="none" width="462" x="11830" y="10740"/>
   <rect fill="none" height="676" stroke="none" width="460" x="11831" y="10742"/>
  </g>
  <g>
   <path d="M 12541,10741 C 12503,10741 12466,10778 12466,10816 L 12466,11341 C 12466,11379 12503,11417 12541,11417 L 12845,11417 C 12883,11417 12921,11379 12921,11341 L 12921,10816 C 12921,10778 12883,10741 12845,10741 L 12541,10741 Z" fill="rgb(0,102,0)" stroke="none"/>
   <rect fill="none" height="678" stroke="none" width="456" x="12466" y="10740"/>
   <rect fill="none" height="676" stroke="none" width="455" x="12466" y="10742"/>
  </g>
  <g>
   <path d="M 13194,10741 C 13156,10741 13119,10778 13119,10816 L 13119,11341 C 13119,11379 13156,11417 13194,11417 L 13498,11417 C 13536,11417 13574,11379 13574,11341 L 13574,10816 C 13574,10778 13536,10741 13498,10741 L 13194,10741 Z" fill="rgb(0,102,0)" stroke="none"/>
   <rect fill="none" height="678" stroke="none" width="456" x="13119" y="10740"/>
   <rect fill="none" height="676" stroke="none" width="455" x="13119" y="10742"/>
  </g>
  <g>
   <path d="M 13826,10741 C 13788,10741 13750,10779 13750,10817 L 13750,11340 C 13750,11378 13788,11416 13826,11416 L 14132,11416 C 14170,11416 14209,11378 14209,11340 L 14209,10817 C 14209,10779 14170,10741 14132,10741 L 13826,10741 Z" fill="rgb(0,102,0)" stroke="none"/>
   <rect fill="none" height="676" stroke="none" width="461" x="13750" y="10741"/>
   <rect fill="none" height="676" stroke="none" width="459" x="13750" y="10742"/>
  </g>
  <g>
   <path d="M 14477,10741 C 14439,10741 14401,10779 14401,10817 L 14401,11340 C 14401,11378 14439,11417 14477,11417 L 14784,11417 C 14822,11417 14861,11378 14861,11340 L 14861,10817 C 14861,10779 14822,10741 14784,10741 L 14477,10741 Z" fill="rgb(0,102,0)" stroke="none"/>
   <rect fill="none" height="678" stroke="none" width="462" x="14401" y="10740"/>
   <rect fill="none" height="676" stroke="none" width="460" x="14402" y="10742"/>
  </g>
  <g>
   <path d="M 15112,10741 C 15074,10741 15036,10779 15036,10817 L 15036,11340 C 15036,11378 15074,11417 15112,11417 L 15419,11417 C 15457,11417 15496,11378 15496,11340 L 15496,10817 C 15496,10779 15457,10741 15419,10741 L 15112,10741 Z" fill="rgb(0,102,0)" stroke="none"/>
   <rect fill="none" height="678" stroke="none" width="462" x="15036" y="10740"/>
   <rect fill="none" height="676" stroke="none" width="460" x="15037" y="10742"/>
  </g>
  <g>
   <path d="M 3537,11770 C 3499,11770 3462,11807 3462,11845 L 3462,12365 C 3462,12403 3499,12441 3537,12441 L 3841,12441 C 3879,12441 3917,12403 3917,12365 L 3917,11845 C 3917,11807 3879,11770 3841,11770 L 3537,11770 Z" fill="rgb(0,102,0)" stroke="none"/>
   <rect fill="none" height="672" stroke="none" width="456" x="3462" y="11770"/>
   <rect fill="none" height="671" stroke="none" width="455" x="3462" y="11770"/>
  </g>
  <g>
   <path d="M 4189,11770 C 4151,11770 4114,11807 4114,11845 L 4114,12365 C 4114,12403 4151,12441 4189,12441 L 4493,12441 C 4531,12441 4569,12403 4569,12365 L 4569,11845 C 4569,11807 4531,11770 4493,11770 L 4189,11770 Z" fill="rgb(0,102,0)" stroke="none"/>
   <rect fill="none" height="672" stroke="none" width="456" x="4114" y="11770"/>
   <rect fill="none" height="671" stroke="none" width="455" x="4114" y="11770"/>
  </g>
  <g>
   <path d="M 4821,11770 C 4783,11770 4745,11808 4745,11846 L 4745,12364 C 4745,12402 4783,12441 4821,12441 L 5127,12441 C 5165,12441 5204,12402 5204,12364 L 5204,11846 C 5204,11808 5165,11770 5127,11770 L 4821,11770 Z" fill="rgb(0,102,0)" stroke="none"/>
   <rect fill="none" height="672" stroke="none" width="461" x="4745" y="11770"/>
   <rect fill="none" height="671" stroke="none" width="459" x="4745" y="11770"/>
  </g>
  <g>
   <path d="M 5474,11770 C 5436,11770 5398,11808 5398,11846 L 5398,12364 C 5398,12402 5436,12441 5474,12441 L 5780,12441 C 5818,12441 5857,12402 5857,12364 L 5857,11846 C 5857,11808 5818,11770 5780,11770 L 5474,11770 Z" fill="rgb(0,102,0)" stroke="none"/>
   <rect fill="none" height="672" stroke="none" width="461" x="5398" y="11770"/>
   <rect fill="none" height="671" stroke="none" width="459" x="5398" y="11770"/>
  </g>
  <g>
   <path d="M 6109,11770 C 6071,11770 6033,11808 6033,11846 L 6033,12364 C 6033,12402 6071,12441 6109,12441 L 6415,12441 C 6453,12441 6492,12402 6492,12364 L 6492,11846 C 6492,11808 6453,11770 6415,11770 L 6109,11770 Z" fill="rgb(0,102,0)" stroke="none"/>
   <rect fill="none" height="672" stroke="none" width="461" x="6033" y="11770"/>
   <rect fill="none" height="671" stroke="none" width="459" x="6033" y="11770"/>
  </g>
  <g>
   <path d="M 6760,11770 C 6722,11770 6684,11808 6684,11846 L 6684,12364 C 6684,12402 6722,12441 6760,12441 L 7067,12441 C 7105,12441 7144,12402 7144,12364 L 7144,11846 C 7144,11808 7105,11770 7067,11770 L 6760,11770 Z" fill="rgb(0,102,0)" stroke="none"/>
   <rect fill="none" height="672" stroke="none" width="461" x="6684" y="11770"/>
   <rect fill="none" height="671" stroke="none" width="460" x="6685" y="11770"/>
  </g>
  <g>
   <path d="M 7395,11770 C 7357,11770 7319,11808 7319,11846 L 7319,12364 C 7319,12402 7357,12441 7395,12441 L 7702,12441 C 7740,12441 7779,12402 7779,12364 L 7779,11846 C 7779,11808 7740,11770 7702,11770 L 7395,11770 Z" fill="rgb(0,102,0)" stroke="none"/>
   <rect fill="none" height="672" stroke="none" width="462" x="7319" y="11770"/>
   <rect fill="none" height="671" stroke="none" width="460" x="7320" y="11770"/>
  </g>
  <g>
   <path d="M 8049,11770 C 8011,11770 7973,11808 7973,11846 L 7973,12364 C 7973,12402 8011,12441 8049,12441 L 8355,12441 C 8393,12441 8432,12402 8432,12364 L 8432,11846 C 8432,11808 8393,11770 8355,11770 L 8049,11770 Z" fill="rgb(0,102,0)" stroke="none"/>
   <rect fill="none" height="672" stroke="none" width="461" x="7973" y="11770"/>
   <rect fill="none" height="671" stroke="none" width="459" x="7973" y="11770"/>
  </g>
  <g>
   <path d="M 8683,11770 C 8645,11770 8608,11807 8608,11845 L 8608,12365 C 8608,12403 8645,12441 8683,12441 L 8987,12441 C 9025,12441 9063,12403 9063,12365 L 9063,11845 C 9063,11807 9025,11770 8987,11770 L 8683,11770 Z" fill="rgb(0,102,0)" stroke="none"/>
   <rect fill="none" height="672" stroke="none" width="456" x="8608" y="11770"/>
   <rect fill="none" height="671" stroke="none" width="455" x="8608" y="11770"/>
  </g>
  <g>
   <path d="M 9331,11770 C 9293,11770 9255,11808 9255,11846 L 9255,12364 C 9255,12402 9293,12441 9331,12441 L 9638,12441 C 9676,12441 9715,12402 9715,12364 L 9715,11846 C 9715,11808 9676,11770 9638,11770 L 9331,11770 Z" fill="rgb(0,102,0)" stroke="none"/>
   <rect fill="none" height="672" stroke="none" width="461" x="9255" y="11770"/>
   <rect fill="none" height="671" stroke="none" width="460" x="9256" y="11770"/>
  </g>
  <g>
   <path d="M 9966,11770 C 9928,11770 9890,11808 9890,11846 L 9890,12364 C 9890,12402 9928,12441 9966,12441 L 10273,12441 C 10311,12441 10350,12402 10350,12364 L 10350,11846 C 10350,11808 10311,11770 10273,11770 L 9966,11770 Z" fill="rgb(0,102,0)" stroke="none"/>
   <rect fill="none" height="672" stroke="none" width="461" x="9890" y="11770"/>
   <rect fill="none" height="671" stroke="none" width="460" x="9891" y="11770"/>
  </g>
  <g>
   <path d="M 10620,11770 C 10582,11770 10544,11808 10544,11846 L 10544,12364 C 10544,12402 10582,12441 10620,12441 L 10926,12441 C 10964,12441 11003,12402 11003,12364 L 11003,11846 C 11003,11808 10964,11770 10926,11770 L 10620,11770 Z" fill="rgb(0,102,0)" stroke="none"/>
   <rect fill="none" height="672" stroke="none" width="460" x="10544" y="11770"/>
   <rect fill="none" height="671" stroke="none" width="459" x="10544" y="11770"/>
  </g>
  <g>
   <path d="M 11255,11770 C 11217,11770 11179,11808 11179,11846 L 11179,12364 C 11179,12402 11217,12441 11255,12441 L 11561,12441 C 11599,12441 11638,12402 11638,12364 L 11638,11846 C 11638,11808 11599,11770 11561,11770 L 11255,11770 Z" fill="rgb(0,102,0)" stroke="none"/>
   <rect fill="none" height="672" stroke="none" width="460" x="11179" y="11770"/>
   <rect fill="none" height="671" stroke="none" width="459" x="11179" y="11770"/>
  </g>
  <g>
   <path d="M 11906,11770 C 11868,11770 11830,11808 11830,11846 L 11830,12364 C 11830,12402 11868,12441 11906,12441 L 12213,12441 C 12251,12441 12290,12402 12290,12364 L 12290,11846 C 12290,11808 12251,11770 12213,11770 L 11906,11770 Z" fill="rgb(0,102,0)" stroke="none"/>
   <rect fill="none" height="672" stroke="none" width="462" x="11830" y="11770"/>
   <rect fill="none" height="671" stroke="none" width="460" x="11831" y="11770"/>
  </g>
  <g>
   <path d="M 12541,11770 C 12503,11770 12466,11807 12466,11845 L 12466,12365 C 12466,12403 12503,12441 12541,12441 L 12845,12441 C 12883,12441 12921,12403 12921,12365 L 12921,11845 C 12921,11807 12883,11770 12845,11770 L 12541,11770 Z" fill="rgb(0,102,0)" stroke="none"/>
   <rect fill="none" height="672" stroke="none" width="456" x="12466" y="11770"/>
   <rect fill="none" height="671" stroke="none" width="455" x="12466" y="11770"/>
  </g>
  <g>
   <path d="M 13194,11770 C 13156,11770 13119,11807 13119,11845 L 13119,12365 C 13119,12403 13156,12441 13194,12441 L 13498,12441 C 13536,12441 13574,12403 13574,12365 L 13574,11845 C 13574,11807 13536,11770 13498,11770 L 13194,11770 Z" fill="rgb(0,102,0)" stroke="none"/>
   <rect fill="none" height="672" stroke="none" width="456" x="13119" y="11770"/>
   <rect fill="none" height="671" stroke="none" width="455" x="13119" y="11770"/>
  </g>
  <g>
   <path d="M 13826,11770 C 13788,11770 13750,11808 13750,11846 L 13750,12364 C 13750,12402 13788,12441 13826,12441 L 14132,12441 C 14170,12441 14209,12402 14209,12364 L 14209,11846 C 14209,11808 14170,11770 14132,11770 L 13826,11770 Z" fill="rgb(0,102,0)" stroke="none"/>
   <rect fill="none" height="672" stroke="none" width="461" x="13750" y="11770"/>
   <rect fill="none" height="671" stroke="none" width="459" x="13750" y="11770"/>
  </g>
  <g>
   <path d="M 14477,11770 C 14439,11770 14401,11808 14401,11846 L 14401,12364 C 14401,12402 14439,12441 14477,12441 L 14784,12441 C 14822,12441 14861,12402 14861,12364 L 14861,11846 C 14861,11808 14822,11770 14784,11770 L 14477,11770 Z" fill="rgb(0,102,0)" stroke="none"/>
   <rect fill="none" height="672" stroke="none" width="462" x="14401" y="11770"/>
   <rect fill="none" height="671" stroke="none" width="460" x="14402" y="11770"/>
  </g>
  <g>
   <path d="M 15112,11770 C 15074,11770 15036,11808 15036,11846 L 15036,12364 C 15036,12402 15074,12441 15112,12441 L 15419,12441 C 15457,12441 15496,12402 15496,12364 L 15496,11846 C 15496,11808 15457,11770 15419,11770 L 15112,11770 Z" fill="rgb(0,102,0)" stroke="none"/>
   <rect fill="none" height="672" stroke="none" width="462" x="15036" y="11770"/>
   <rect fill="none" height="671" stroke="none" width="460" x="15037" y="11770"/>
  </g>
  <g>
   <path d="M 4189,8749 C 4151,8749 4114,8786 4114,8824 L 4114,9344 C 4114,9382 4151,9420 4189,9420 L 4493,9420 C 4531,9420 4569,9382 4569,9344 L 4569,8824 C 4569,8786 4531,8749 4493,8749 L 4189,8749 Z" fill="rgb(0,204,0)" stroke="none"/>
   <rect fill="none" height="672" stroke="none" width="456" x="4114" y="8749"/>
   <rect fill="none" height="671" stroke="none" width="455" x="4114" y="8749"/>
  </g>
  <g>
   <path d="M 4839,8749 C 4801,8749 4763,8787 4763,8825 L 4763,9343 C 4763,9381 4801,9420 4839,9420 L 5145,9420 C 5183,9420 5222,9381 5222,9343 L 5222,8825 C 5222,8787 5183,8749 5145,8749 L 4839,8749 Z" fill="rgb(0,102,0)" stroke="none"/>
   <rect fill="none" height="672" stroke="none" width="461" x="4763" y="8749"/>
   <rect fill="none" height="671" stroke="none" width="459" x="4763" y="8749"/>
  </g>
  <g>
   <path d="M 5474,8749 C 5436,8749 5398,8787 5398,8825 L 5398,9343 C 5398,9381 5436,9420 5474,9420 L 5780,9420 C 5818,9420 5857,9381 5857,9343 L 5857,8825 C 5857,8787 5818,8749 5780,8749 L 5474,8749 Z" fill="rgb(0,102,0)" stroke="none"/>
   <rect fill="none" height="672" stroke="none" width="461" x="5398" y="8749"/>
   <rect fill="none" height="671" stroke="none" width="459" x="5398" y="8749"/>
  </g>
  <g>
   <path d="M 6125,8749 C 6087,8749 6049,8787 6049,8825 L 6049,9343 C 6049,9381 6087,9420 6125,9420 L 6432,9420 C 6470,9420 6509,9381 6509,9343 L 6509,8825 C 6509,8787 6470,8749 6432,8749 L 6125,8749 Z" fill="rgb(0,102,0)" stroke="none"/>
   <rect fill="none" height="672" stroke="none" width="461" x="6049" y="8749"/>
   <rect fill="none" height="671" stroke="none" width="460" x="6050" y="8749"/>
  </g>
  <g>
   <path d="M 6760,8749 C 6722,8749 6684,8787 6684,8825 L 6684,9343 C 6684,9381 6722,9420 6760,9420 L 7067,9420 C 7105,9420 7144,9381 7144,9343 L 7144,8825 C 7144,8787 7105,8749 7067,8749 L 6760,8749 Z" fill="rgb(0,102,0)" stroke="none"/>
   <rect fill="none" height="672" stroke="none" width="461" x="6684" y="8749"/>
   <rect fill="none" height="671" stroke="none" width="460" x="6685" y="8749"/>
  </g>
  <g>
   <path d="M 7414,8749 C 7376,8749 7338,8787 7338,8825 L 7338,9343 C 7338,9381 7376,9420 7414,9420 L 7720,9420 C 7758,9420 7797,9381 7797,9343 L 7797,8825 C 7797,8787 7758,8749 7720,8749 L 7414,8749 Z" fill="rgb(0,102,0)" stroke="none"/>
   <rect fill="none" height="672" stroke="none" width="460" x="7338" y="8749"/>
   <rect fill="none" height="671" stroke="none" width="459" x="7338" y="8749"/>
  </g>
  <g>
   <path d="M 8049,8749 C 8011,8749 7973,8787 7973,8825 L 7973,9343 C 7973,9381 8011,9420 8049,9420 L 8355,9420 C 8393,9420 8432,9381 8432,9343 L 8432,8825 C 8432,8787 8393,8749 8355,8749 L 8049,8749 Z" fill="rgb(0,102,0)" stroke="none"/>
   <rect fill="none" height="672" stroke="none" width="461" x="7973" y="8749"/>
   <rect fill="none" height="671" stroke="none" width="459" x="7973" y="8749"/>
  </g>
  <g>
   <path d="M 8700,8749 C 8662,8749 8624,8787 8624,8825 L 8624,9344 C 8624,9382 8662,9420 8700,9420 L 9004,9420 C 9042,9420 9080,9382 9080,9344 L 9080,8825 C 9080,8787 9042,8749 9004,8749 L 8700,8749 Z" fill="rgb(0,102,0)" stroke="none"/>
   <rect fill="none" height="672" stroke="none" width="458" x="8623" y="8749"/>
   <rect fill="none" height="671" stroke="none" width="456" x="8625" y="8749"/>
  </g>
  <g>
   <path d="M 9331,8749 C 9293,8749 9255,8787 9255,8825 L 9255,9343 C 9255,9381 9293,9420 9331,9420 L 9638,9420 C 9676,9420 9715,9381 9715,9343 L 9715,8825 C 9715,8787 9676,8749 9638,8749 L 9331,8749 Z" fill="rgb(0,102,0)" stroke="none"/>
   <rect fill="none" height="672" stroke="none" width="461" x="9255" y="8749"/>
   <rect fill="none" height="671" stroke="none" width="460" x="9256" y="8749"/>
  </g>
  <g>
   <path d="M 9985,8749 C 9947,8749 9909,8787 9909,8825 L 9909,9343 C 9909,9381 9947,9420 9985,9420 L 10291,9420 C 10329,9420 10368,9381 10368,9343 L 10368,8825 C 10368,8787 10329,8749 10291,8749 L 9985,8749 Z" fill="rgb(0,102,0)" stroke="none"/>
   <rect fill="none" height="672" stroke="none" width="460" x="9909" y="8749"/>
   <rect fill="none" height="671" stroke="none" width="459" x="9909" y="8749"/>
  </g>
  <g>
   <path d="M 10620,8749 C 10582,8749 10544,8787 10544,8825 L 10544,9343 C 10544,9381 10582,9420 10620,9420 L 10926,9420 C 10964,9420 11003,9381 11003,9343 L 11003,8825 C 11003,8787 10964,8749 10926,8749 L 10620,8749 Z" fill="rgb(0,102,0)" stroke="none"/>
   <rect fill="none" height="672" stroke="none" width="460" x="10544" y="8749"/>
   <rect fill="none" height="671" stroke="none" width="459" x="10544" y="8749"/>
  </g>
  <g>
   <path d="M 11271,8749 C 11233,8749 11195,8787 11195,8825 L 11195,9343 C 11195,9381 11233,9420 11271,9420 L 11578,9420 C 11616,9420 11655,9381 11655,9343 L 11655,8825 C 11655,8787 11616,8749 11578,8749 L 11271,8749 Z" fill="rgb(0,102,0)" stroke="none"/>
   <rect fill="none" height="672" stroke="none" width="461" x="11195" y="8749"/>
   <rect fill="none" height="671" stroke="none" width="460" x="11196" y="8749"/>
  </g>
  <g>
   <path d="M 11906,8749 C 11868,8749 11830,8787 11830,8825 L 11830,9343 C 11830,9381 11868,9420 11906,9420 L 12213,9420 C 12251,9420 12290,9381 12290,9343 L 12290,8825 C 12290,8787 12251,8749 12213,8749 L 11906,8749 Z" fill="rgb(0,102,0)" stroke="none"/>
   <rect fill="none" height="672" stroke="none" width="462" x="11830" y="8749"/>
   <rect fill="none" height="671" stroke="none" width="460" x="11831" y="8749"/>
  </g>
  <g>
   <path d="M 12559,8749 C 12521,8749 12483,8787 12483,8825 L 12483,9343 C 12483,9381 12521,9420 12559,9420 L 12866,9420 C 12904,9420 12943,9381 12943,9343 L 12943,8825 C 12943,8787 12904,8749 12866,8749 L 12559,8749 Z" fill="rgb(0,102,0)" stroke="none"/>
   <rect fill="none" height="672" stroke="none" width="461" x="12483" y="8749"/>
   <rect fill="none" height="671" stroke="none" width="460" x="12484" y="8749"/>
  </g>
  <g>
   <path d="M 13194,8749 C 13156,8749 13119,8786 13119,8824 L 13119,9344 C 13119,9382 13156,9420 13194,9420 L 13498,9420 C 13536,9420 13574,9382 13574,9344 L 13574,8824 C 13574,8786 13536,8749 13498,8749 L 13194,8749 Z" fill="rgb(0,102,0)" stroke="none"/>
   <rect fill="none" height="672" stroke="none" width="456" x="13119" y="8749"/>
   <rect fill="none" height="671" stroke="none" width="455" x="13119" y="8749"/>
  </g>
  <g>
   <path d="M 13842,8749 C 13804,8749 13766,8787 13766,8825 L 13766,9343 C 13766,9381 13804,9420 13842,9420 L 14149,9420 C 14187,9420 14226,9381 14226,9343 L 14226,8825 C 14226,8787 14187,8749 14149,8749 L 13842,8749 Z" fill="rgb(0,102,0)" stroke="none"/>
   <rect fill="none" height="672" stroke="none" width="461" x="13766" y="8749"/>
   <rect fill="none" height="671" stroke="none" width="460" x="13767" y="8749"/>
  </g>
  <g>
   <path d="M 14477,8749 C 14439,8749 14401,8787 14401,8825 L 14401,9343 C 14401,9381 14439,9420 14477,9420 L 14784,9420 C 14822,9420 14861,9381 14861,9343 L 14861,8825 C 14861,8787 14822,8749 14784,8749 L 14477,8749 Z" fill="rgb(0,204,0)" stroke="none"/>
   <rect fill="none" height="672" stroke="none" width="462" x="14401" y="8749"/>
   <rect fill="none" height="671" stroke="none" width="460" x="14402" y="8749"/>
  </g>
  <g>
   <path d="M 961,6569 C 923,6569 885,6607 885,6645 L 885,7168 C 885,7206 923,7245 961,7245 L 1268,7245 C 1306,7245 1345,7206 1345,7168 L 1345,6645 C 1345,6607 1306,6569 1268,6569 L 961,6569 Z" fill="rgb(0,102,0)" stroke="none"/>
   <rect fill="none" height="677" stroke="none" width="461" x="885" y="6569"/>
   <rect fill="none" height="676" stroke="none" width="460" x="886" y="6570"/>
  </g>
  <g>
   <path d="M 1614,6569 C 1576,6569 1538,6607 1538,6645 L 1538,7168 C 1538,7206 1576,7245 1614,7245 L 1921,7245 C 1959,7245 1998,7206 1998,7168 L 1998,6645 C 1998,6607 1959,6569 1921,6569 L 1614,6569 Z" fill="rgb(0,102,0)" stroke="none"/>
   <rect fill="none" height="677" stroke="none" width="461" x="1538" y="6569"/>
   <rect fill="none" height="676" stroke="none" width="460" x="1539" y="6570"/>
  </g>
  <g>
   <path d="M 2249,6569 C 2211,6569 2173,6607 2173,6645 L 2173,7168 C 2173,7206 2211,7245 2249,7245 L 2556,7245 C 2594,7245 2633,7206 2633,7168 L 2633,6645 C 2633,6607 2594,6569 2556,6569 L 2249,6569 Z" fill="rgb(0,102,0)" stroke="none"/>
   <rect fill="none" height="677" stroke="none" width="461" x="2173" y="6569"/>
   <rect fill="none" height="676" stroke="none" width="460" x="2174" y="6570"/>
  </g>
  <g>
   <path d="M 2903,6569 C 2865,6569 2827,6607 2827,6645 L 2827,7168 C 2827,7206 2865,7244 2903,7244 L 3209,7244 C 3247,7244 3286,7206 3286,7168 L 3286,6645 C 3286,6607 3247,6569 3209,6569 L 2903,6569 Z" fill="rgb(0,102,0)" stroke="none"/>
   <rect fill="none" height="676" stroke="none" width="461" x="2827" y="6569"/>
   <rect fill="none" height="676" stroke="none" width="459" x="2827" y="6570"/>
  </g>
  <g>
   <path d="M 3537,6569 C 3499,6569 3462,6606 3462,6644 L 3462,7169 C 3462,7207 3499,7245 3537,7245 L 3841,7245 C 3879,7245 3917,7207 3917,7169 L 3917,6644 C 3917,6606 3879,6569 3841,6569 L 3537,6569 Z" fill="rgb(0,102,0)" stroke="none"/>
   <rect fill="none" height="677" stroke="none" width="456" x="3462" y="6569"/>
   <rect fill="none" height="676" stroke="none" width="455" x="3462" y="6570"/>
  </g>
  <g>
   <path d="M 4189,6569 C 4151,6569 4114,6606 4114,6644 L 4114,7169 C 4114,7207 4151,7245 4189,7245 L 4493,7245 C 4531,7245 4569,7207 4569,7169 L 4569,6644 C 4569,6606 4531,6569 4493,6569 L 4189,6569 Z" fill="rgb(0,102,0)" stroke="none"/>
   <rect fill="none" height="677" stroke="none" width="456" x="4114" y="6569"/>
   <rect fill="none" height="676" stroke="none" width="455" x="4114" y="6570"/>
  </g>
  <g>
   <path d="M 4821,6569 C 4783,6569 4745,6607 4745,6645 L 4745,7168 C 4745,7206 4783,7244 4821,7244 L 5127,7244 C 5165,7244 5204,7206 5204,7168 L 5204,6645 C 5204,6607 5165,6569 5127,6569 L 4821,6569 Z" fill="rgb(0,102,0)" stroke="none"/>
   <rect fill="none" height="676" stroke="none" width="461" x="4745" y="6569"/>
   <rect fill="none" height="676" stroke="none" width="459" x="4745" y="6570"/>
  </g>
  <g>
   <path d="M 5474,6569 C 5436,6569 5398,6607 5398,6645 L 5398,7168 C 5398,7206 5436,7244 5474,7244 L 5780,7244 C 5818,7244 5857,7206 5857,7168 L 5857,6645 C 5857,6607 5818,6569 5780,6569 L 5474,6569 Z" fill="rgb(0,102,0)" stroke="none"/>
   <rect fill="none" height="676" stroke="none" width="461" x="5398" y="6569"/>
   <rect fill="none" height="676" stroke="none" width="459" x="5398" y="6570"/>
  </g>
  <g>
   <path d="M 6109,6569 C 6071,6569 6033,6607 6033,6645 L 6033,7168 C 6033,7206 6071,7244 6109,7244 L 6415,7244 C 6453,7244 6492,7206 6492,7168 L 6492,6645 C 6492,6607 6453,6569 6415,6569 L 6109,6569 Z" fill="rgb(0,102,0)" stroke="none"/>
   <rect fill="none" height="676" stroke="none" width="461" x="6033" y="6569"/>
   <rect fill="none" height="676" stroke="none" width="459" x="6033" y="6570"/>
  </g>
  <g>
   <path d="M 6760,6569 C 6722,6569 6684,6607 6684,6645 L 6684,7168 C 6684,7206 6722,7245 6760,7245 L 7067,7245 C 7105,7245 7144,7206 7144,7168 L 7144,6645 C 7144,6607 7105,6569 7067,6569 L 6760,6569 Z" fill="rgb(0,102,0)" stroke="none"/>
   <rect fill="none" height="677" stroke="none" width="461" x="6684" y="6569"/>
   <rect fill="none" height="676" stroke="none" width="460" x="6685" y="6570"/>
  </g>
  <g>
   <path d="M 7395,6569 C 7357,6569 7319,6607 7319,6645 L 7319,7168 C 7319,7206 7357,7245 7395,7245 L 7702,7245 C 7740,7245 7779,7206 7779,7168 L 7779,6645 C 7779,6607 7740,6569 7702,6569 L 7395,6569 Z" fill="rgb(0,102,0)" stroke="none"/>
   <rect fill="none" height="677" stroke="none" width="462" x="7319" y="6569"/>
   <rect fill="none" height="676" stroke="none" width="460" x="7320" y="6570"/>
  </g>
  <g>
   <path d="M 8049,6569 C 8011,6569 7973,6607 7973,6645 L 7973,7168 C 7973,7206 8011,7244 8049,7244 L 8355,7244 C 8393,7244 8432,7206 8432,7168 L 8432,6645 C 8432,6607 8393,6569 8355,6569 L 8049,6569 Z" fill="rgb(0,102,0)" stroke="none"/>
   <rect fill="none" height="676" stroke="none" width="461" x="7973" y="6569"/>
   <rect fill="none" height="676" stroke="none" width="459" x="7973" y="6570"/>
  </g>
  <g>
   <path d="M 8683,6569 C 8645,6569 8608,6606 8608,6644 L 8608,7169 C 8608,7207 8645,7245 8683,7245 L 8987,7245 C 9025,7245 9063,7207 9063,7169 L 9063,6644 C 9063,6606 9025,6569 8987,6569 L 8683,6569 Z" fill="rgb(0,102,0)" stroke="none"/>
   <rect fill="none" height="677" stroke="none" width="456" x="8608" y="6569"/>
   <rect fill="none" height="676" stroke="none" width="455" x="8608" y="6570"/>
  </g>
  <g>
   <path d="M 9331,6569 C 9293,6569 9255,6607 9255,6645 L 9255,7168 C 9255,7206 9293,7245 9331,7245 L 9638,7245 C 9676,7245 9715,7206 9715,7168 L 9715,6645 C 9715,6607 9676,6569 9638,6569 L 9331,6569 Z" fill="rgb(0,102,0)" stroke="none"/>
   <rect fill="none" height="677" stroke="none" width="461" x="9255" y="6569"/>
   <rect fill="none" height="676" stroke="none" width="460" x="9256" y="6570"/>
  </g>
  <g>
   <path d="M 9966,6569 C 9928,6569 9890,6607 9890,6645 L 9890,7168 C 9890,7206 9928,7245 9966,7245 L 10273,7245 C 10311,7245 10350,7206 10350,7168 L 10350,6645 C 10350,6607 10311,6569 10273,6569 L 9966,6569 Z" fill="rgb(0,102,0)" stroke="none"/>
   <rect fill="none" height="677" stroke="none" width="461" x="9890" y="6569"/>
   <rect fill="none" height="676" stroke="none" width="460" x="9891" y="6570"/>
  </g>
  <g>
   <path d="M 10620,6569 C 10582,6569 10544,6607 10544,6645 L 10544,7168 C 10544,7206 10582,7244 10620,7244 L 10926,7244 C 10964,7244 11003,7206 11003,7168 L 11003,6645 C 11003,6607 10964,6569 10926,6569 L 10620,6569 Z" fill="rgb(0,102,0)" stroke="none"/>
   <rect fill="none" height="676" stroke="none" width="460" x="10544" y="6569"/>
   <rect fill="none" height="676" stroke="none" width="459" x="10544" y="6570"/>
  </g>
  <g>
   <path d="M 11255,6569 C 11217,6569 11179,6607 11179,6645 L 11179,7168 C 11179,7206 11217,7244 11255,7244 L 11561,7244 C 11599,7244 11638,7206 11638,7168 L 11638,6645 C 11638,6607 11599,6569 11561,6569 L 11255,6569 Z" fill="rgb(0,102,0)" stroke="none"/>
   <rect fill="none" height="676" stroke="none" width="460" x="11179" y="6569"/>
   <rect fill="none" height="676" stroke="none" width="459" x="11179" y="6570"/>
  </g>
  <g>
   <path d="M 11906,6569 C 11868,6569 11830,6607 11830,6645 L 11830,7168 C 11830,7206 11868,7245 11906,7245 L 12213,7245 C 12251,7245 12290,7206 12290,7168 L 12290,6645 C 12290,6607 12251,6569 12213,6569 L 11906,6569 Z" fill="rgb(0,102,0)" stroke="none"/>
   <rect fill="none" height="677" stroke="none" width="462" x="11830" y="6569"/>
   <rect fill="none" height="676" stroke="none" width="460" x="11831" y="6570"/>
  </g>
  <g>
   <path d="M 12541,6569 C 12503,6569 12466,6606 12466,6644 L 12466,7169 C 12466,7207 12503,7245 12541,7245 L 12845,7245 C 12883,7245 12921,7207 12921,7169 L 12921,6644 C 12921,6606 12883,6569 12845,6569 L 12541,6569 Z" fill="rgb(0,102,0)" stroke="none"/>
   <rect fill="none" height="677" stroke="none" width="456" x="12466" y="6569"/>
   <rect fill="none" height="676" stroke="none" width="455" x="12466" y="6570"/>
  </g>
  <g>
   <path d="M 13194,6569 C 13156,6569 13119,6606 13119,6644 L 13119,7169 C 13119,7207 13156,7245 13194,7245 L 13498,7245 C 13536,7245 13574,7207 13574,7169 L 13574,6644 C 13574,6606 13536,6569 13498,6569 L 13194,6569 Z" fill="rgb(0,102,0)" stroke="none"/>
   <rect fill="none" height="677" stroke="none" width="456" x="13119" y="6569"/>
   <rect fill="none" height="676" stroke="none" width="455" x="13119" y="6570"/>
  </g>
  <g>
   <path d="M 13826,6569 C 13788,6569 13750,6607 13750,6645 L 13750,7168 C 13750,7206 13788,7244 13826,7244 L 14132,7244 C 14170,7244 14209,7206 14209,7168 L 14209,6645 C 14209,6607 14170,6569 14132,6569 L 13826,6569 Z" fill="rgb(0,102,0)" stroke="none"/>
   <rect fill="none" height="676" stroke="none" width="461" x="13750" y="6569"/>
   <rect fill="none" height="676" stroke="none" width="459" x="13750" y="6570"/>
  </g>
  <g>
   <path d="M 14477,6569 C 14439,6569 14401,6607 14401,6645 L 14401,7168 C 14401,7206 14439,7245 14477,7245 L 14784,7245 C 14822,7245 14861,7206 14861,7168 L 14861,6645 C 14861,6607 14822,6569 14784,6569 L 14477,6569 Z" fill="rgb(0,102,0)" stroke="none"/>
   <rect fill="none" height="677" stroke="none" width="462" x="14401" y="6569"/>
   <rect fill="none" height="676" stroke="none" width="460" x="14402" y="6570"/>
  </g>
  <g>
   <path d="M 15147,6569 C 15109,6569 15071,6607 15071,6645 L 15071,7168 C 15071,7206 15109,7245 15147,7245 L 15454,7245 C 15492,7245 15531,7206 15531,7168 L 15531,6645 C 15531,6607 15492,6569 15454,6569 L 15147,6569 Z" fill="rgb(0,102,0)" stroke="none"/>
   <rect fill="none" height="677" stroke="none" width="461" x="15071" y="6569"/>
   <rect fill="none" height="676" stroke="none" width="460" x="15072" y="6570"/>
  </g>
  <g>
   <path d="M 15782,6569 C 15744,6569 15706,6607 15706,6645 L 15706,7168 C 15706,7206 15744,7245 15782,7245 L 16089,7245 C 16127,7245 16166,7206 16166,7168 L 16166,6645 C 16166,6607 16127,6569 16089,6569 L 15782,6569 Z" fill="rgb(0,102,0)" stroke="none"/>
   <rect fill="none" height="677" stroke="none" width="461" x="15706" y="6569"/>
   <rect fill="none" height="676" stroke="none" width="460" x="15707" y="6570"/>
  </g>
  <g>
   <path d="M 16435,6569 C 16397,6569 16359,6607 16359,6645 L 16359,7168 C 16359,7206 16397,7245 16435,7245 L 16742,7245 C 16780,7245 16819,7206 16819,7168 L 16819,6645 C 16819,6607 16780,6569 16742,6569 L 16435,6569 Z" fill="rgb(0,102,0)" stroke="none"/>
   <rect fill="none" height="677" stroke="none" width="461" x="16359" y="6569"/>
   <rect fill="none" height="676" stroke="none" width="460" x="16360" y="6570"/>
  </g>
  <g>
   <path d="M 17070,6569 C 17032,6569 16995,6606 16995,6644 L 16995,7169 C 16995,7207 17032,7245 17070,7245 L 17374,7245 C 17412,7245 17450,7207 17450,7169 L 17450,6644 C 17450,6606 17412,6569 17374,6569 L 17070,6569 Z" fill="rgb(0,102,0)" stroke="none"/>
   <rect fill="none" height="677" stroke="none" width="456" x="16995" y="6569"/>
   <rect fill="none" height="676" stroke="none" width="455" x="16995" y="6570"/>
  </g>
  <g>
   <path d="M 17723,6569 C 17685,6569 17648,6606 17648,6644 L 17648,7169 C 17648,7207 17685,7245 17723,7245 L 18027,7245 C 18065,7245 18103,7207 18103,7169 L 18103,6644 C 18103,6606 18065,6569 18027,6569 L 17723,6569 Z" fill="rgb(0,102,0)" stroke="none"/>
   <rect fill="none" height="677" stroke="none" width="456" x="17648" y="6569"/>
   <rect fill="none" height="676" stroke="none" width="455" x="17648" y="6570"/>
  </g>
  <g>
   <path d="M 1296,5542 C 1258,5542 1220,5580 1220,5618 L 1220,6141 C 1220,6179 1258,6218 1296,6218 L 1603,6218 C 1641,6218 1680,6179 1680,6141 L 1680,5618 C 1680,5580 1641,5542 1603,5542 L 1296,5542 Z" fill="rgb(0,102,0)" stroke="none"/>
   <rect fill="none" height="677" stroke="none" width="462" x="1220" y="5542"/>
   <rect fill="none" height="676" stroke="none" width="460" x="1221" y="5543"/>
  </g>
  <g>
   <path d="M 1949,5542 C 1911,5542 1873,5580 1873,5618 L 1873,6141 C 1873,6179 1911,6218 1949,6218 L 2256,6218 C 2294,6218 2333,6179 2333,6141 L 2333,5618 C 2333,5580 2294,5542 2256,5542 L 1949,5542 Z" fill="rgb(0,102,0)" stroke="none"/>
   <rect fill="none" height="677" stroke="none" width="461" x="1873" y="5542"/>
   <rect fill="none" height="676" stroke="none" width="460" x="1874" y="5543"/>
  </g>
  <g>
   <path d="M 2584,5542 C 2546,5542 2508,5580 2508,5618 L 2508,6141 C 2508,6179 2546,6218 2584,6218 L 2891,6218 C 2929,6218 2968,6179 2968,6141 L 2968,5618 C 2968,5580 2929,5542 2891,5542 L 2584,5542 Z" fill="rgb(0,102,0)" stroke="none"/>
   <rect fill="none" height="677" stroke="none" width="461" x="2508" y="5542"/>
   <rect fill="none" height="676" stroke="none" width="460" x="2509" y="5543"/>
  </g>
  <g>
   <path d="M 3238,5542 C 3200,5542 3162,5580 3162,5618 L 3162,6141 C 3162,6179 3200,6217 3238,6217 L 3544,6217 C 3582,6217 3621,6179 3621,6141 L 3621,5618 C 3621,5580 3582,5542 3544,5542 L 3238,5542 Z" fill="rgb(0,102,0)" stroke="none"/>
   <rect fill="none" height="676" stroke="none" width="460" x="3162" y="5542"/>
   <rect fill="none" height="676" stroke="none" width="459" x="3162" y="5543"/>
  </g>
  <g>
   <path d="M 3872,5542 C 3834,5542 3797,5579 3797,5617 L 3797,6142 C 3797,6180 3834,6218 3872,6218 L 4176,6218 C 4214,6218 4252,6180 4252,6142 L 4252,5617 C 4252,5579 4214,5542 4176,5542 L 3872,5542 Z" fill="rgb(0,102,0)" stroke="none"/>
   <rect fill="none" height="677" stroke="none" width="456" x="3797" y="5542"/>
   <rect fill="none" height="676" stroke="none" width="455" x="3797" y="5543"/>
  </g>
  <g>
   <path d="M 4520,5542 C 4482,5542 4444,5580 4444,5618 L 4444,6141 C 4444,6179 4482,6218 4520,6218 L 4827,6218 C 4865,6218 4904,6179 4904,6141 L 4904,5618 C 4904,5580 4865,5542 4827,5542 L 4520,5542 Z" fill="rgb(0,102,0)" stroke="none"/>
   <rect fill="none" height="677" stroke="none" width="461" x="4444" y="5542"/>
   <rect fill="none" height="676" stroke="none" width="460" x="4445" y="5543"/>
  </g>
  <g>
   <path d="M 5155,5542 C 5117,5542 5079,5580 5079,5618 L 5079,6141 C 5079,6179 5117,6218 5155,6218 L 5462,6218 C 5500,6218 5539,6179 5539,6141 L 5539,5618 C 5539,5580 5500,5542 5462,5542 L 5155,5542 Z" fill="rgb(0,102,0)" stroke="none"/>
   <rect fill="none" height="677" stroke="none" width="461" x="5079" y="5542"/>
   <rect fill="none" height="676" stroke="none" width="460" x="5080" y="5543"/>
  </g>
  <g>
   <path d="M 5809,5542 C 5771,5542 5733,5580 5733,5618 L 5733,6141 C 5733,6179 5771,6217 5809,6217 L 6115,6217 C 6153,6217 6192,6179 6192,6141 L 6192,5618 C 6192,5580 6153,5542 6115,5542 L 5809,5542 Z" fill="rgb(0,102,0)" stroke="none"/>
   <rect fill="none" height="676" stroke="none" width="461" x="5733" y="5542"/>
   <rect fill="none" height="676" stroke="none" width="459" x="5733" y="5543"/>
  </g>
  <g>
   <path d="M 6444,5542 C 6406,5542 6368,5580 6368,5618 L 6368,6141 C 6368,6179 6406,6217 6444,6217 L 6750,6217 C 6788,6217 6827,6179 6827,6141 L 6827,5618 C 6827,5580 6788,5542 6750,5542 L 6444,5542 Z" fill="rgb(0,102,0)" stroke="none"/>
   <rect fill="none" height="676" stroke="none" width="461" x="6368" y="5542"/>
   <rect fill="none" height="676" stroke="none" width="459" x="6368" y="5543"/>
  </g>
  <g>
   <path d="M 7095,5542 C 7057,5542 7019,5580 7019,5618 L 7019,6141 C 7019,6179 7057,6218 7095,6218 L 7402,6218 C 7440,6218 7479,6179 7479,6141 L 7479,5618 C 7479,5580 7440,5542 7402,5542 L 7095,5542 Z" fill="rgb(0,102,0)" stroke="none"/>
   <rect fill="none" height="677" stroke="none" width="461" x="7019" y="5542"/>
   <rect fill="none" height="676" stroke="none" width="460" x="7020" y="5543"/>
  </g>
  <g>
   <path d="M 7730,5542 C 7692,5542 7654,5580 7654,5618 L 7654,6141 C 7654,6179 7692,6218 7730,6218 L 8037,6218 C 8075,6218 8114,6179 8114,6141 L 8114,5618 C 8114,5580 8075,5542 8037,5542 L 7730,5542 Z" fill="rgb(0,102,0)" stroke="none"/>
   <rect fill="none" height="677" stroke="none" width="461" x="7654" y="5542"/>
   <rect fill="none" height="676" stroke="none" width="460" x="7655" y="5543"/>
  </g>
  <g>
   <path d="M 8383,5542 C 8345,5542 8308,5579 8308,5617 L 8308,6142 C 8308,6180 8345,6218 8383,6218 L 8687,6218 C 8725,6218 8763,6180 8763,6142 L 8763,5617 C 8763,5579 8725,5542 8687,5542 L 8383,5542 Z" fill="rgb(0,102,0)" stroke="none"/>
   <rect fill="none" height="677" stroke="none" width="456" x="8308" y="5542"/>
   <rect fill="none" height="676" stroke="none" width="455" x="8308" y="5543"/>
  </g>
  <g>
   <path d="M 9015,5542 C 8977,5542 8939,5580 8939,5618 L 8939,6141 C 8939,6179 8977,6217 9015,6217 L 9321,6217 C 9359,6217 9398,6179 9398,6141 L 9398,5618 C 9398,5580 9359,5542 9321,5542 L 9015,5542 Z" fill="rgb(0,102,0)" stroke="none"/>
   <rect fill="none" height="676" stroke="none" width="461" x="8939" y="5542"/>
   <rect fill="none" height="676" stroke="none" width="459" x="8939" y="5543"/>
  </g>
  <g>
   <path d="M 9666,5542 C 9628,5542 9590,5580 9590,5618 L 9590,6141 C 9590,6179 9628,6218 9666,6218 L 9973,6218 C 10011,6218 10050,6179 10050,6141 L 10050,5618 C 10050,5580 10011,5542 9973,5542 L 9666,5542 Z" fill="rgb(0,102,0)" stroke="none"/>
   <rect fill="none" height="677" stroke="none" width="461" x="9590" y="5542"/>
   <rect fill="none" height="676" stroke="none" width="460" x="9591" y="5543"/>
  </g>
  <g>
   <path d="M 10301,5542 C 10263,5542 10225,5580 10225,5618 L 10225,6141 C 10225,6179 10263,6218 10301,6218 L 10608,6218 C 10646,6218 10685,6179 10685,6141 L 10685,5618 C 10685,5580 10646,5542 10608,5542 L 10301,5542 Z" fill="rgb(0,102,0)" stroke="none"/>
   <rect fill="none" height="677" stroke="none" width="461" x="10225" y="5542"/>
   <rect fill="none" height="676" stroke="none" width="460" x="10226" y="5543"/>
  </g>
  <g>
   <path d="M 10955,5542 C 10917,5542 10879,5580 10879,5618 L 10879,6141 C 10879,6179 10917,6217 10955,6217 L 11261,6217 C 11299,6217 11338,6179 11338,6141 L 11338,5618 C 11338,5580 11299,5542 11261,5542 L 10955,5542 Z" fill="rgb(0,102,0)" stroke="none"/>
   <rect fill="none" height="676" stroke="none" width="461" x="10879" y="5542"/>
   <rect fill="none" height="676" stroke="none" width="459" x="10879" y="5543"/>
  </g>
  <g>
   <path d="M 11590,5542 C 11552,5542 11514,5580 11514,5618 L 11514,6141 C 11514,6179 11552,6217 11590,6217 L 11896,6217 C 11934,6217 11973,6179 11973,6141 L 11973,5618 C 11973,5580 11934,5542 11896,5542 L 11590,5542 Z" fill="rgb(0,102,0)" stroke="none"/>
   <rect fill="none" height="676" stroke="none" width="461" x="11514" y="5542"/>
   <rect fill="none" height="676" stroke="none" width="459" x="11514" y="5543"/>
  </g>
  <g>
   <path d="M 12241,5542 C 12203,5542 12165,5580 12165,5618 L 12165,6141 C 12165,6179 12203,6218 12241,6218 L 12548,6218 C 12586,6218 12625,6179 12625,6141 L 12625,5618 C 12625,5580 12586,5542 12548,5542 L 12241,5542 Z" fill="rgb(0,102,0)" stroke="none"/>
   <rect fill="none" height="677" stroke="none" width="461" x="12165" y="5542"/>
   <rect fill="none" height="676" stroke="none" width="460" x="12166" y="5543"/>
  </g>
  <g>
   <path d="M 12876,5542 C 12838,5542 12800,5580 12800,5618 L 12800,6142 C 12800,6180 12838,6218 12876,6218 L 13180,6218 C 13218,6218 13256,6180 13256,6142 L 13256,5618 C 13256,5580 13218,5542 13180,5542 L 12876,5542 Z" fill="rgb(0,102,0)" stroke="none"/>
   <rect fill="none" height="677" stroke="none" width="457" x="12800" y="5542"/>
   <rect fill="none" height="676" stroke="none" width="456" x="12801" y="5543"/>
  </g>
  <g>
   <path d="M 13526,5542 C 13488,5542 13450,5580 13450,5618 L 13450,6141 C 13450,6179 13488,6217 13526,6217 L 13832,6217 C 13870,6217 13909,6179 13909,6141 L 13909,5618 C 13909,5580 13870,5542 13832,5542 L 13526,5542 Z" fill="rgb(0,102,0)" stroke="none"/>
   <rect fill="none" height="676" stroke="none" width="460" x="13450" y="5542"/>
   <rect fill="none" height="676" stroke="none" width="459" x="13450" y="5543"/>
  </g>
  <g>
   <path d="M 14161,5542 C 14123,5542 14085,5580 14085,5618 L 14085,6141 C 14085,6179 14123,6217 14161,6217 L 14467,6217 C 14505,6217 14544,6179 14544,6141 L 14544,5618 C 14544,5580 14505,5542 14467,5542 L 14161,5542 Z" fill="rgb(0,102,0)" stroke="none"/>
   <rect fill="none" height="676" stroke="none" width="461" x="14085" y="5542"/>
   <rect fill="none" height="676" stroke="none" width="459" x="14085" y="5543"/>
  </g>
  <g>
   <path d="M 14812,5542 C 14774,5542 14736,5580 14736,5618 L 14736,6141 C 14736,6179 14774,6218 14812,6218 L 15119,6218 C 15157,6218 15196,6179 15196,6141 L 15196,5618 C 15196,5580 15157,5542 15119,5542 L 14812,5542 Z" fill="rgb(0,102,0)" stroke="none"/>
   <rect fill="none" height="677" stroke="none" width="461" x="14736" y="5542"/>
   <rect fill="none" height="676" stroke="none" width="460" x="14737" y="5543"/>
  </g>
  <g>
   <path d="M 15484,5542 C 15446,5542 15408,5580 15408,5618 L 15408,6141 C 15408,6179 15446,6217 15484,6217 L 15790,6217 C 15828,6217 15867,6179 15867,6141 L 15867,5618 C 15867,5580 15828,5542 15790,5542 L 15484,5542 Z" fill="rgb(0,102,0)" stroke="none"/>
   <rect fill="none" height="676" stroke="none" width="460" x="15408" y="5542"/>
   <rect fill="none" height="676" stroke="none" width="459" x="15408" y="5543"/>
  </g>
  <g>
   <path d="M 16119,5542 C 16081,5542 16043,5580 16043,5618 L 16043,6141 C 16043,6179 16081,6217 16119,6217 L 16425,6217 C 16463,6217 16502,6179 16502,6141 L 16502,5618 C 16502,5580 16463,5542 16425,5542 L 16119,5542 Z" fill="rgb(0,102,0)" stroke="none"/>
   <rect fill="none" height="676" stroke="none" width="461" x="16043" y="5542"/>
   <rect fill="none" height="676" stroke="none" width="459" x="16043" y="5543"/>
  </g>
  <g>
   <path d="M 16770,5542 C 16732,5542 16694,5580 16694,5618 L 16694,6141 C 16694,6179 16732,6218 16770,6218 L 17077,6218 C 17115,6218 17154,6179 17154,6141 L 17154,5618 C 17154,5580 17115,5542 17077,5542 L 16770,5542 Z" fill="rgb(0,102,0)" stroke="none"/>
   <rect fill="none" height="677" stroke="none" width="461" x="16694" y="5542"/>
   <rect fill="none" height="676" stroke="none" width="460" x="16695" y="5543"/>
  </g>
  <g>
   <path d="M 17405,5542 C 17367,5542 17330,5579 17330,5617 L 17330,6142 C 17330,6180 17367,6218 17405,6218 L 17709,6218 C 17747,6218 17785,6180 17785,6142 L 17785,5617 C 17785,5579 17747,5542 17709,5542 L 17405,5542 Z" fill="rgb(0,102,0)" stroke="none"/>
   <rect fill="none" height="677" stroke="none" width="456" x="17330" y="5542"/>
   <rect fill="none" height="676" stroke="none" width="455" x="17330" y="5543"/>
  </g>
  <g>
   <path d="M 1949,4520 C 1911,4520 1873,4558 1873,4596 L 1873,5114 C 1873,5152 1911,5191 1949,5191 L 2256,5191 C 2294,5191 2333,5152 2333,5114 L 2333,4596 C 2333,4558 2294,4520 2256,4520 L 1949,4520 Z" fill="rgb(0,102,0)" stroke="none"/>
   <rect fill="none" height="672" stroke="none" width="461" x="1873" y="4520"/>
   <rect fill="none" height="671" stroke="none" width="460" x="1874" y="4520"/>
  </g>
  <g>
   <path d="M 2603,4520 C 2565,4520 2527,4558 2527,4596 L 2527,5114 C 2527,5152 2565,5191 2603,5191 L 2909,5191 C 2947,5191 2986,5152 2986,5114 L 2986,4596 C 2986,4558 2947,4520 2909,4520 L 2603,4520 Z" fill="rgb(0,102,0)" stroke="none"/>
   <rect fill="none" height="672" stroke="none" width="461" x="2527" y="4520"/>
   <rect fill="none" height="671" stroke="none" width="459" x="2527" y="4520"/>
  </g>
  <g>
   <path d="M 3238,4520 C 3200,4520 3162,4558 3162,4596 L 3162,5114 C 3162,5152 3200,5191 3238,5191 L 3544,5191 C 3582,5191 3621,5152 3621,5114 L 3621,4596 C 3621,4558 3582,4520 3544,4520 L 3238,4520 Z" fill="rgb(0,102,0)" stroke="none"/>
   <rect fill="none" height="672" stroke="none" width="460" x="3162" y="4520"/>
   <rect fill="none" height="671" stroke="none" width="459" x="3162" y="4520"/>
  </g>
  <g>
   <path d="M 3889,4520 C 3851,4520 3813,4558 3813,4596 L 3813,5115 C 3813,5153 3851,5191 3889,5191 L 4193,5191 C 4231,5191 4269,5153 4269,5115 L 4269,4596 C 4269,4558 4231,4520 4193,4520 L 3889,4520 Z" fill="rgb(0,102,0)" stroke="none"/>
   <rect fill="none" height="672" stroke="none" width="457" x="3813" y="4520"/>
   <rect fill="none" height="671" stroke="none" width="456" x="3814" y="4520"/>
  </g>
  <g>
   <path d="M 4520,4520 C 4482,4520 4444,4558 4444,4596 L 4444,5114 C 4444,5152 4482,5191 4520,5191 L 4827,5191 C 4865,5191 4904,5152 4904,5114 L 4904,4596 C 4904,4558 4865,4520 4827,4520 L 4520,4520 Z" fill="rgb(0,102,0)" stroke="none"/>
   <rect fill="none" height="672" stroke="none" width="461" x="4444" y="4520"/>
   <rect fill="none" height="671" stroke="none" width="460" x="4445" y="4520"/>
  </g>
  <g>
   <path d="M 5174,4520 C 5136,4520 5098,4558 5098,4596 L 5098,5114 C 5098,5152 5136,5191 5174,5191 L 5480,5191 C 5518,5191 5557,5152 5557,5114 L 5557,4596 C 5557,4558 5518,4520 5480,4520 L 5174,4520 Z" fill="rgb(0,102,0)" stroke="none"/>
   <rect fill="none" height="672" stroke="none" width="461" x="5098" y="4520"/>
   <rect fill="none" height="671" stroke="none" width="459" x="5098" y="4520"/>
  </g>
  <g>
   <path d="M 5809,4520 C 5771,4520 5733,4558 5733,4596 L 5733,5114 C 5733,5152 5771,5191 5809,5191 L 6115,5191 C 6153,5191 6192,5152 6192,5114 L 6192,4596 C 6192,4558 6153,4520 6115,4520 L 5809,4520 Z" fill="rgb(0,102,0)" stroke="none"/>
   <rect fill="none" height="672" stroke="none" width="461" x="5733" y="4520"/>
   <rect fill="none" height="671" stroke="none" width="459" x="5733" y="4520"/>
  </g>
  <g>
   <path d="M 6460,4520 C 6422,4520 6384,4558 6384,4596 L 6384,5114 C 6384,5152 6422,5191 6460,5191 L 6767,5191 C 6805,5191 6844,5152 6844,5114 L 6844,4596 C 6844,4558 6805,4520 6767,4520 L 6460,4520 Z" fill="rgb(0,102,0)" stroke="none"/>
   <rect fill="none" height="672" stroke="none" width="461" x="6384" y="4520"/>
   <rect fill="none" height="671" stroke="none" width="460" x="6385" y="4520"/>
  </g>
  <g>
   <path d="M 7095,4520 C 7057,4520 7019,4558 7019,4596 L 7019,5114 C 7019,5152 7057,5191 7095,5191 L 7402,5191 C 7440,5191 7479,5152 7479,5114 L 7479,4596 C 7479,4558 7440,4520 7402,4520 L 7095,4520 Z" fill="rgb(0,102,0)" stroke="none"/>
   <rect fill="none" height="672" stroke="none" width="461" x="7019" y="4520"/>
   <rect fill="none" height="671" stroke="none" width="460" x="7020" y="4520"/>
  </g>
  <g>
   <path d="M 7748,4520 C 7710,4520 7672,4558 7672,4596 L 7672,5114 C 7672,5152 7710,5191 7748,5191 L 8055,5191 C 8093,5191 8132,5152 8132,5114 L 8132,4596 C 8132,4558 8093,4520 8055,4520 L 7748,4520 Z" fill="rgb(0,102,0)" stroke="none"/>
   <rect fill="none" height="672" stroke="none" width="461" x="7672" y="4520"/>
   <rect fill="none" height="671" stroke="none" width="460" x="7673" y="4520"/>
  </g>
  <g>
   <path d="M 8383,4520 C 8345,4520 8308,4557 8308,4595 L 8308,5115 C 8308,5153 8345,5191 8383,5191 L 8687,5191 C 8725,5191 8763,5153 8763,5115 L 8763,4595 C 8763,4557 8725,4520 8687,4520 L 8383,4520 Z" fill="rgb(0,102,0)" stroke="none"/>
   <rect fill="none" height="672" stroke="none" width="456" x="8308" y="4520"/>
   <rect fill="none" height="671" stroke="none" width="455" x="8308" y="4520"/>
  </g>
  <g>
   <path d="M 9036,4520 C 8998,4520 8961,4557 8961,4595 L 8961,5115 C 8961,5153 8998,5191 9036,5191 L 9340,5191 C 9378,5191 9416,5153 9416,5115 L 9416,4595 C 9416,4557 9378,4520 9340,4520 L 9036,4520 Z" fill="rgb(0,102,0)" stroke="none"/>
   <rect fill="none" height="672" stroke="none" width="456" x="8961" y="4520"/>
   <rect fill="none" height="671" stroke="none" width="455" x="8961" y="4520"/>
  </g>
  <g>
   <path d="M 9666,4520 C 9628,4520 9590,4558 9590,4596 L 9590,5114 C 9590,5152 9628,5191 9666,5191 L 9973,5191 C 10011,5191 10050,5152 10050,5114 L 10050,4596 C 10050,4558 10011,4520 9973,4520 L 9666,4520 Z" fill="rgb(0,102,0)" stroke="none"/>
   <rect fill="none" height="672" stroke="none" width="461" x="9590" y="4520"/>
   <rect fill="none" height="671" stroke="none" width="460" x="9591" y="4520"/>
  </g>
  <g>
   <path d="M 10320,4520 C 10282,4520 10244,4558 10244,4596 L 10244,5114 C 10244,5152 10282,5191 10320,5191 L 10626,5191 C 10664,5191 10703,5152 10703,5114 L 10703,4596 C 10703,4558 10664,4520 10626,4520 L 10320,4520 Z" fill="rgb(0,102,0)" stroke="none"/>
   <rect fill="none" height="672" stroke="none" width="461" x="10244" y="4520"/>
   <rect fill="none" height="671" stroke="none" width="459" x="10244" y="4520"/>
  </g>
  <g>
   <path d="M 10955,4520 C 10917,4520 10879,4558 10879,4596 L 10879,5114 C 10879,5152 10917,5191 10955,5191 L 11261,5191 C 11299,5191 11338,5152 11338,5114 L 11338,4596 C 11338,4558 11299,4520 11261,4520 L 10955,4520 Z" fill="rgb(0,102,0)" stroke="none"/>
   <rect fill="none" height="672" stroke="none" width="461" x="10879" y="4520"/>
   <rect fill="none" height="671" stroke="none" width="459" x="10879" y="4520"/>
  </g>
  <g>
   <path d="M 11606,4520 C 11568,4520 11530,4558 11530,4596 L 11530,5114 C 11530,5152 11568,5191 11606,5191 L 11913,5191 C 11951,5191 11990,5152 11990,5114 L 11990,4596 C 11990,4558 11951,4520 11913,4520 L 11606,4520 Z" fill="rgb(0,102,0)" stroke="none"/>
   <rect fill="none" height="672" stroke="none" width="461" x="11530" y="4520"/>
   <rect fill="none" height="671" stroke="none" width="460" x="11531" y="4520"/>
  </g>
  <g>
   <path d="M 12241,4520 C 12203,4520 12165,4558 12165,4596 L 12165,5114 C 12165,5152 12203,5191 12241,5191 L 12548,5191 C 12586,5191 12625,5152 12625,5114 L 12625,4596 C 12625,4558 12586,4520 12548,4520 L 12241,4520 Z" fill="rgb(0,102,0)" stroke="none"/>
   <rect fill="none" height="672" stroke="none" width="461" x="12165" y="4520"/>
   <rect fill="none" height="671" stroke="none" width="460" x="12166" y="4520"/>
  </g>
  <g>
   <path d="M 12894,4520 C 12856,4520 12819,4557 12819,4595 L 12819,5115 C 12819,5153 12856,5191 12894,5191 L 13198,5191 C 13236,5191 13274,5153 13274,5115 L 13274,4595 C 13274,4557 13236,4520 13198,4520 L 12894,4520 Z" fill="rgb(0,102,0)" stroke="none"/>
   <rect fill="none" height="672" stroke="none" width="456" x="12819" y="4520"/>
   <rect fill="none" height="671" stroke="none" width="455" x="12819" y="4520"/>
  </g>
  <g>
   <path d="M 13526,4520 C 13488,4520 13450,4558 13450,4596 L 13450,5114 C 13450,5152 13488,5191 13526,5191 L 13832,5191 C 13870,5191 13909,5152 13909,5114 L 13909,4596 C 13909,4558 13870,4520 13832,4520 L 13526,4520 Z" fill="rgb(0,102,0)" stroke="none"/>
   <rect fill="none" height="672" stroke="none" width="460" x="13450" y="4520"/>
   <rect fill="none" height="671" stroke="none" width="459" x="13450" y="4520"/>
  </g>
  <g>
   <path d="M 14177,4520 C 14139,4520 14101,4558 14101,4596 L 14101,5114 C 14101,5152 14139,5191 14177,5191 L 14484,5191 C 14522,5191 14561,5152 14561,5114 L 14561,4596 C 14561,4558 14522,4520 14484,4520 L 14177,4520 Z" fill="rgb(0,102,0)" stroke="none"/>
   <rect fill="none" height="672" stroke="none" width="462" x="14101" y="4520"/>
   <rect fill="none" height="671" stroke="none" width="460" x="14102" y="4520"/>
  </g>
  <g>
   <path d="M 14812,4520 C 14774,4520 14736,4558 14736,4596 L 14736,5114 C 14736,5152 14774,5191 14812,5191 L 15119,5191 C 15157,5191 15196,5152 15196,5114 L 15196,4596 C 15196,4558 15157,4520 15119,4520 L 14812,4520 Z" fill="rgb(0,102,0)" stroke="none"/>
   <rect fill="none" height="672" stroke="none" width="461" x="14736" y="4520"/>
   <rect fill="none" height="671" stroke="none" width="460" x="14737" y="4520"/>
  </g>
  <g>
   <path d="M 15465,4520 C 15427,4520 15389,4558 15389,4596 L 15389,5114 C 15389,5152 15427,5191 15465,5191 L 15772,5191 C 15810,5191 15849,5152 15849,5114 L 15849,4596 C 15849,4558 15810,4520 15772,4520 L 15465,4520 Z" fill="rgb(0,102,0)" stroke="none"/>
   <rect fill="none" height="672" stroke="none" width="461" x="15389" y="4520"/>
   <rect fill="none" height="671" stroke="none" width="460" x="15390" y="4520"/>
  </g>
  <g>
   <path d="M 16135,4520 C 16097,4520 16059,4558 16059,4596 L 16059,5114 C 16059,5152 16097,5191 16135,5191 L 16442,5191 C 16480,5191 16519,5152 16519,5114 L 16519,4596 C 16519,4558 16480,4520 16442,4520 L 16135,4520 Z" fill="rgb(0,102,0)" stroke="none"/>
   <rect fill="none" height="672" stroke="none" width="461" x="16059" y="4520"/>
   <rect fill="none" height="671" stroke="none" width="460" x="16060" y="4520"/>
  </g>
  <g>
   <path d="M 16770,4520 C 16732,4520 16694,4558 16694,4596 L 16694,5114 C 16694,5152 16732,5191 16770,5191 L 17077,5191 C 17115,5191 17154,5152 17154,5114 L 17154,4596 C 17154,4558 17115,4520 17077,4520 L 16770,4520 Z" fill="rgb(0,102,0)" stroke="none"/>
   <rect fill="none" height="672" stroke="none" width="461" x="16694" y="4520"/>
   <rect fill="none" height="671" stroke="none" width="460" x="16695" y="4520"/>
  </g>
  <g>
   <path d="M 3485,3493 C 3447,3493 3409,3531 3409,3569 L 3409,4091 C 3409,4129 3447,4168 3485,4168 L 3791,4168 C 3829,4168 3868,4129 3868,4091 L 3868,3569 C 3868,3531 3829,3493 3791,3493 L 3485,3493 Z" fill="rgb(0,102,0)" stroke="none"/>
   <rect fill="none" height="677" stroke="none" width="461" x="3409" y="3492"/>
   <rect fill="none" height="675" stroke="none" width="459" x="3409" y="3493"/>
  </g>
  <g>
   <path d="M 4119,3493 C 4081,3493 4044,3530 4044,3568 L 4044,4092 C 4044,4130 4081,4168 4119,4168 L 4423,4168 C 4461,4168 4499,4130 4499,4092 L 4499,3568 C 4499,3530 4461,3493 4423,3493 L 4119,3493 Z" fill="rgb(0,102,0)" stroke="none"/>
   <rect fill="none" height="677" stroke="none" width="456" x="4044" y="3492"/>
   <rect fill="none" height="675" stroke="none" width="455" x="4044" y="3493"/>
  </g>
  <g>
   <path d="M 4767,3493 C 4729,3493 4691,3531 4691,3569 L 4691,4091 C 4691,4129 4729,4168 4767,4168 L 5074,4168 C 5112,4168 5151,4129 5151,4091 L 5151,3569 C 5151,3531 5112,3493 5074,3493 L 4767,3493 Z" fill="rgb(0,102,0)" stroke="none"/>
   <rect fill="none" height="677" stroke="none" width="461" x="4691" y="3492"/>
   <rect fill="none" height="675" stroke="none" width="460" x="4692" y="3493"/>
  </g>
  <g>
   <path d="M 5402,3493 C 5364,3493 5326,3531 5326,3569 L 5326,4091 C 5326,4129 5364,4168 5402,4168 L 5709,4168 C 5747,4168 5786,4129 5786,4091 L 5786,3569 C 5786,3531 5747,3493 5709,3493 L 5402,3493 Z" fill="rgb(0,102,0)" stroke="none"/>
   <rect fill="none" height="677" stroke="none" width="461" x="5326" y="3492"/>
   <rect fill="none" height="675" stroke="none" width="460" x="5327" y="3493"/>
  </g>
  <g>
   <path d="M 6056,3493 C 6018,3493 5980,3531 5980,3569 L 5980,4091 C 5980,4129 6018,4168 6056,4168 L 6362,4168 C 6400,4168 6439,4129 6439,4091 L 6439,3569 C 6439,3531 6400,3493 6362,3493 L 6056,3493 Z" fill="rgb(0,102,0)" stroke="none"/>
   <rect fill="none" height="677" stroke="none" width="460" x="5980" y="3492"/>
   <rect fill="none" height="675" stroke="none" width="459" x="5980" y="3493"/>
  </g>
  <g>
   <path d="M 6691,3493 C 6653,3493 6615,3531 6615,3569 L 6615,4091 C 6615,4129 6653,4168 6691,4168 L 6997,4168 C 7035,4168 7074,4129 7074,4091 L 7074,3569 C 7074,3531 7035,3493 6997,3493 L 6691,3493 Z" fill="rgb(0,102,0)" stroke="none"/>
   <rect fill="none" height="677" stroke="none" width="461" x="6615" y="3492"/>
   <rect fill="none" height="675" stroke="none" width="459" x="6615" y="3493"/>
  </g>
  <g>
   <path d="M 7342,3493 C 7304,3493 7266,3531 7266,3569 L 7266,4091 C 7266,4129 7304,4168 7342,4168 L 7649,4168 C 7687,4168 7726,4129 7726,4091 L 7726,3569 C 7726,3531 7687,3493 7649,3493 L 7342,3493 Z" fill="rgb(0,102,0)" stroke="none"/>
   <rect fill="none" height="677" stroke="none" width="462" x="7266" y="3492"/>
   <rect fill="none" height="675" stroke="none" width="460" x="7267" y="3493"/>
  </g>
  <g>
   <path d="M 7977,3493 C 7939,3493 7901,3531 7901,3569 L 7901,4091 C 7901,4129 7939,4168 7977,4168 L 8284,4168 C 8322,4168 8361,4129 8361,4091 L 8361,3569 C 8361,3531 8322,3493 8284,3493 L 7977,3493 Z" fill="rgb(0,102,0)" stroke="none"/>
   <rect fill="none" height="677" stroke="none" width="461" x="7901" y="3492"/>
   <rect fill="none" height="675" stroke="none" width="460" x="7902" y="3493"/>
  </g>
  <g>
   <path d="M 8630,3493 C 8592,3493 8555,3530 8555,3568 L 8555,4092 C 8555,4130 8592,4168 8630,4168 L 8934,4168 C 8972,4168 9010,4130 9010,4092 L 9010,3568 C 9010,3530 8972,3493 8934,3493 L 8630,3493 Z" fill="rgb(0,102,0)" stroke="none"/>
   <rect fill="none" height="677" stroke="none" width="456" x="8555" y="3492"/>
   <rect fill="none" height="675" stroke="none" width="455" x="8555" y="3493"/>
  </g>
  <g>
   <path d="M 9260,3493 C 9222,3493 9184,3531 9184,3569 L 9184,4091 C 9184,4129 9222,4168 9260,4168 L 9567,4168 C 9605,4168 9644,4129 9644,4091 L 9644,3569 C 9644,3531 9605,3493 9567,3493 L 9260,3493 Z" fill="rgb(0,102,0)" stroke="none"/>
   <rect fill="none" height="677" stroke="none" width="462" x="9184" y="3492"/>
   <rect fill="none" height="675" stroke="none" width="460" x="9185" y="3493"/>
  </g>
  <g>
   <path d="M 9913,3493 C 9875,3493 9837,3531 9837,3569 L 9837,4091 C 9837,4129 9875,4168 9913,4168 L 10220,4168 C 10258,4168 10297,4129 10297,4091 L 10297,3569 C 10297,3531 10258,3493 10220,3493 L 9913,3493 Z" fill="rgb(0,102,0)" stroke="none"/>
   <rect fill="none" height="677" stroke="none" width="461" x="9837" y="3492"/>
   <rect fill="none" height="675" stroke="none" width="460" x="9838" y="3493"/>
  </g>
  <g>
   <path d="M 10548,3493 C 10510,3493 10472,3531 10472,3569 L 10472,4091 C 10472,4129 10510,4168 10548,4168 L 10855,4168 C 10893,4168 10932,4129 10932,4091 L 10932,3569 C 10932,3531 10893,3493 10855,3493 L 10548,3493 Z" fill="rgb(0,102,0)" stroke="none"/>
   <rect fill="none" height="677" stroke="none" width="461" x="10472" y="3492"/>
   <rect fill="none" height="675" stroke="none" width="460" x="10473" y="3493"/>
  </g>
  <g>
   <path d="M 11202,3493 C 11164,3493 11126,3531 11126,3569 L 11126,4091 C 11126,4129 11164,4168 11202,4168 L 11508,4168 C 11546,4168 11585,4129 11585,4091 L 11585,3569 C 11585,3531 11546,3493 11508,3493 L 11202,3493 Z" fill="rgb(0,102,0)" stroke="none"/>
   <rect fill="none" height="677" stroke="none" width="461" x="11126" y="3492"/>
   <rect fill="none" height="675" stroke="none" width="459" x="11126" y="3493"/>
  </g>
  <g>
   <path d="M 11837,3493 C 11799,3493 11761,3531 11761,3569 L 11761,4091 C 11761,4129 11799,4168 11837,4168 L 12143,4168 C 12181,4168 12220,4129 12220,4091 L 12220,3569 C 12220,3531 12181,3493 12143,3493 L 11837,3493 Z" fill="rgb(0,102,0)" stroke="none"/>
   <rect fill="none" height="677" stroke="none" width="461" x="11761" y="3492"/>
   <rect fill="none" height="675" stroke="none" width="459" x="11761" y="3493"/>
  </g>
  <g>
   <path d="M 12488,3493 C 12450,3493 12412,3531 12412,3569 L 12412,4091 C 12412,4129 12450,4168 12488,4168 L 12795,4168 C 12833,4168 12872,4129 12872,4091 L 12872,3569 C 12872,3531 12833,3493 12795,3493 L 12488,3493 Z" fill="rgb(0,102,0)" stroke="none"/>
   <rect fill="none" height="677" stroke="none" width="461" x="12412" y="3492"/>
   <rect fill="none" height="675" stroke="none" width="460" x="12413" y="3493"/>
  </g>
  <g>
   <path d="M 13123,3493 C 13085,3493 13047,3530 13047,3568 L 13047,4091 C 13047,4129 13085,4167 13123,4167 L 13427,4167 C 13465,4167 13503,4129 13503,4091 L 13503,3568 C 13503,3530 13465,3493 13427,3493 L 13123,3493 Z" fill="rgb(0,102,0)" stroke="none"/>
   <rect fill="none" height="675" stroke="none" width="457" x="13047" y="3493"/>
   <rect fill="none" height="675" stroke="none" width="456" x="13048" y="3493"/>
  </g>
  <g>
   <path d="M 13773,3493 C 13735,3493 13697,3531 13697,3569 L 13697,4091 C 13697,4129 13735,4168 13773,4168 L 14079,4168 C 14117,4168 14156,4129 14156,4091 L 14156,3569 C 14156,3531 14117,3493 14079,3493 L 13773,3493 Z" fill="rgb(0,102,0)" stroke="none"/>
   <rect fill="none" height="677" stroke="none" width="460" x="13697" y="3492"/>
   <rect fill="none" height="675" stroke="none" width="459" x="13697" y="3493"/>
  </g>
  <g>
   <path d="M 14443,3493 C 14405,3493 14367,3531 14367,3569 L 14367,4091 C 14367,4129 14405,4168 14443,4168 L 14749,4168 C 14787,4168 14826,4129 14826,4091 L 14826,3569 C 14826,3531 14787,3493 14749,3493 L 14443,3493 Z" fill="rgb(0,102,0)" stroke="none"/>
   <rect fill="none" height="677" stroke="none" width="461" x="14367" y="3492"/>
   <rect fill="none" height="675" stroke="none" width="459" x="14367" y="3493"/>
  </g>
  <g>
   <path d="M 15078,3493 C 15040,3493 15002,3531 15002,3569 L 15002,4091 C 15002,4129 15040,4168 15078,4168 L 15384,4168 C 15422,4168 15461,4129 15461,4091 L 15461,3569 C 15461,3531 15422,3493 15384,3493 L 15078,3493 Z" fill="rgb(0,102,0)" stroke="none"/>
   <rect fill="none" height="677" stroke="none" width="460" x="15002" y="3492"/>
   <rect fill="none" height="675" stroke="none" width="459" x="15002" y="3493"/>
  </g>
  </g>
  </g>
  </g>
 </svg>